<svg width="21" height="23" viewBox="0 0 21 23" fill="none" xmlns="http://www.w3.org/2000/svg">
<path d="M13.965 11.5007L20.4616 4.38537C21.1794 3.59919 21.1794 2.32461 20.4616 1.53967L19.5955 0.591103C18.8775 -0.195315 17.7137 -0.195315 16.9971 0.591103L10.5007 7.70621L4.00403 0.589629C3.28622 -0.196543 2.12247 -0.196543 1.40578 0.589629L0.538357 1.53819C-0.179452 2.32461 -0.179452 3.59919 0.538357 4.38414L7.0361 11.5007L0.539703 18.6158C-0.178331 19.4022 -0.178331 20.6768 0.539703 21.4618L1.40578 22.4103C2.12359 23.1965 3.28734 23.1965 4.00403 22.4103L10.5007 15.295L16.9971 22.4103C17.7151 23.1965 18.8788 23.1965 19.5955 22.4103L20.4616 21.4618C21.1794 20.6753 21.1794 19.4008 20.4616 18.6158L13.965 11.5007Z" fill="white"/>
</svg>
