<svg id="hero-svg" viewBox="0 0 734 636" fill="none" xmlns="http://www.w3.org/2000/svg">
<path d="M342.945 365.468L328.807 492.184H492.792L471.458 365.468H342.945Z" fill="#384187"/>
<path d="M57.6455 34.6705V341.362C57.6455 366.604 77.2127 387.176 101.829 387.934C210.901 390.837 592.523 397.778 696.419 396.264C714.218 396.011 728.736 381.371 729.241 362.944C731.261 291.635 738.078 114.436 726.085 34.9229C723.56 18.1369 705.76 5.13726 689.349 4.63242C597.951 1.60337 193.732 -1.55189 89.9629 0.846106C72.0368 1.22474 57.6455 16.2438 57.6455 34.6705Z" fill="#384187"/>
<path d="M76.4541 42.8742V326.469C76.4541 340.857 87.9419 352.469 102.333 352.721L681.521 359.915C695.786 360.167 707.4 348.682 707.4 334.421L708.41 53.3497C708.41 43.1267 700.331 34.7968 690.232 34.6705L97.2837 22.6805C85.7958 22.4281 76.4541 31.5153 76.4541 42.8742Z" fill="#D8DEE8"/>
<path d="M711.693 371.653L76.455 360.798C75.95 360.798 75.5713 360.42 75.5713 359.789C75.5713 359.284 75.95 358.905 76.455 358.905L711.819 369.759C712.324 369.759 712.703 370.138 712.703 370.643C712.703 371.274 712.198 371.653 711.693 371.653Z" fill="#7D97F4"/>
<path d="M528.14 518.057H288.158C281.594 518.057 276.796 513.387 278.059 508.465L281.089 496.349C281.972 492.688 286.012 490.038 290.809 489.912L522.206 482.718C527.256 482.592 531.674 485.242 532.684 489.028L538.239 508.465C539.754 513.261 534.83 518.057 528.14 518.057Z" fill="#384187"/>
<path d="M296.616 205.433H106.373C98.9245 205.433 92.9912 202.783 92.9912 199.628V79.4752C92.9912 76.1938 99.177 73.6696 106.625 73.6696L297.626 75.1841C304.948 75.1841 310.881 77.8345 310.755 80.9898L309.997 199.628C309.997 202.909 304.064 205.433 296.616 205.433Z" fill="white"/>
<path d="M295.733 345.401H105.49C98.0417 345.401 92.1084 342.877 92.1084 339.595V219.443C92.1084 216.161 98.2941 213.637 105.742 213.637L296.743 215.152C304.065 215.152 309.998 217.802 309.872 220.957L309.115 339.595C309.241 342.877 303.181 345.401 295.733 345.401Z" fill="white"/>
<path d="M708.284 64.33V52.2138C708.284 40.9811 700.205 31.7677 690.105 31.5153L97.1574 18.2632C85.7958 18.0108 76.4541 28.1076 76.4541 40.6024V64.33H708.284Z" fill="#4E56B5"/>
<path d="M106.12 54.4857C111.548 54.4857 115.967 50.0684 115.967 44.6413C115.967 39.2142 111.548 34.7969 106.12 34.7969C100.692 34.7969 96.2734 39.2142 96.2734 44.6413C96.2734 50.0684 100.566 54.4857 106.12 54.4857Z" fill="#7D97F4"/>
<path d="M166.084 54.4857C171.512 54.4857 175.931 50.0684 175.931 44.6413C175.931 39.2142 171.512 34.7969 166.084 34.7969C160.656 34.7969 156.237 39.2142 156.237 44.6413C156.237 50.0684 160.656 54.4857 166.084 54.4857Z" fill="#7D97F4"/>
<path d="M135.66 54.4857C141.088 54.4857 145.507 50.0684 145.507 44.6413C145.507 39.2142 141.088 34.7969 135.66 34.7969C130.232 34.7969 125.813 39.2142 125.813 44.6413C125.813 50.0684 130.232 54.4857 135.66 54.4857Z" fill="#7D97F4"/>
<path d="M166.337 592.647C165.454 592.647 164.696 592.142 164.696 591.638V468.077C164.696 467.446 165.454 467.068 166.337 467.068C167.221 467.068 167.979 467.573 167.979 468.077V591.638C167.979 592.142 167.221 592.647 166.337 592.647Z" fill="#7D97F4"/>
<path d="M114.706 592.647C113.822 592.647 113.064 592.142 113.064 591.638V468.077C113.064 467.446 113.822 467.068 114.706 467.068C115.589 467.068 116.347 467.573 116.347 468.077V591.638C116.347 592.142 115.589 592.647 114.706 592.647Z" fill="#7D97F4"/>
<path d="M56.0037 592.647C55.6249 593.531 56.0037 594.414 56.8873 594.793C57.1398 594.919 57.266 594.919 57.5185 594.919C58.1497 594.919 58.7809 594.54 59.0334 593.909L113.064 466.942C111.928 466.942 110.792 466.815 109.529 466.563L56.0037 592.647Z" fill="#7D97F4"/>
<path d="M108.519 592.647C108.141 593.531 108.519 594.414 109.403 594.793C109.655 594.919 109.782 594.919 110.034 594.919C110.665 594.919 111.297 594.54 111.549 593.909L165.958 465.932C164.822 465.806 163.56 465.806 162.424 465.679L108.519 592.647Z" fill="#7D97F4"/>
<path d="M172.271 469.718H60.4222C59.286 469.718 58.4023 468.835 58.4023 467.699C58.4023 466.563 59.286 465.679 60.4222 465.679H172.271C173.407 465.679 174.29 466.563 174.29 467.699C174.417 468.835 173.407 469.718 172.271 469.718Z" fill="#7D97F4"/>
<path d="M149.296 499.882H96.5273V503.164H149.296V499.882Z" fill="#7D97F4"/>
<path d="M135.282 536.105H82.5142C81.6305 536.105 80.873 535.348 80.873 534.464C80.873 533.581 81.6305 532.823 82.5142 532.823H135.282C136.166 532.823 136.923 533.581 136.923 534.464C136.923 535.348 136.292 536.105 135.282 536.105Z" fill="#7D97F4"/>
<path d="M121.018 568.288H68.2495C67.3658 568.288 66.6084 567.531 66.6084 566.648C66.6084 565.764 67.3658 565.007 68.2495 565.007H121.018C121.901 565.007 122.659 565.764 122.659 566.648C122.785 567.531 122.028 568.288 121.018 568.288Z" fill="#7D97F4"/>
<path d="M207.113 152.551C207.113 152.551 188.682 202.783 157.248 218.559C157.248 218.559 167.726 235.598 173.154 236.607C173.154 236.607 206.734 193.696 210.142 158.483L207.113 152.551Z" fill="url(#paint0_linear)"/>
<path d="M208.881 161.638C209.133 162.522 205.851 163.91 203.957 160.25C203.831 158.483 202.821 151.037 203.831 149.522C209.386 141.949 215.319 141.445 215.319 141.445C216.455 143.464 217.717 145.105 218.349 147.503C218.854 149.27 218.475 151.289 217.591 152.93C216.707 154.57 215.445 156.716 214.183 158.483C212.163 161.638 208.881 161.638 208.881 161.638Z" fill="url(#paint1_linear)"/>
<path d="M151.442 234.588L279.07 232.695C282.478 232.695 285.13 229.918 285.13 226.51L283.236 97.6495C283.236 94.2419 280.459 91.5914 277.05 91.5914L149.422 93.4846C146.013 93.4846 143.362 96.2612 143.362 99.6689L145.256 228.53C145.256 231.938 148.033 234.588 151.442 234.588Z" fill="#4E56B5"/>
<path d="M157.121 197.987L183.127 160.502C183.379 160.124 183.884 159.871 184.389 159.871C184.894 159.871 185.399 160.124 185.651 160.502L201.936 181.832L227.437 145.61C227.689 145.231 228.194 144.979 228.699 144.979C229.204 144.979 229.709 145.231 229.962 145.61L270.737 197.735C271.116 198.113 271.116 198.87 270.863 199.375C270.611 199.88 270.106 200.259 269.475 200.259H215.697H189.06H158.257C157.752 200.259 157.248 199.88 156.995 199.375C156.869 199.123 156.869 198.366 157.121 197.987Z" fill="white"/>
<path d="M175.426 137.28C175.552 143.59 180.981 148.512 187.419 148.386C193.983 148.26 199.159 142.959 199.033 136.522C198.907 130.212 193.478 125.163 186.914 125.416C180.349 125.668 175.3 130.969 175.426 137.28Z" fill="white"/>
<path d="M139.701 176.026C139.701 176.026 133.263 179.182 132.001 182.842C130.991 185.745 123.921 186.123 123.164 191.803C122.785 194.706 120.639 197.104 117.736 197.608C110.414 198.744 99.1784 202.531 97.2848 215.278C95.8961 224.996 100.819 228.656 105.995 229.918C109.783 230.802 112.307 234.588 111.55 238.374C110.792 242.034 111.929 246.326 118.367 249.733C132.758 257.306 147.023 231.811 147.023 231.811L149.927 187.385L139.701 176.026Z" fill="#384187"/>
<path d="M80.7465 454.825L79.8629 462.398C79.7366 463.786 78.6005 465.048 77.0856 465.175C74.687 465.427 70.7736 465.679 66.8602 465.301C65.219 465.175 64.0829 463.408 64.5878 461.767C65.4715 458.864 67.2389 454.447 69.7637 451.796H78.2217C79.7366 451.922 80.8728 453.311 80.7465 454.825Z" fill="#384187"/>
<path d="M147.023 365.594L148.411 373.924C148.411 373.924 143.614 422.263 142.73 441.699C142.604 444.729 143.362 447.758 145.003 450.282L153.335 463.786L132.253 451.291L131.874 448.767L135.282 443.971L130.738 389.701C130.485 386.545 131.116 383.264 132.631 380.487L137.05 372.284L147.023 365.594Z" fill="url(#paint2_linear)"/>
<path d="M154.723 465.806H148.033C146.77 465.806 145.634 465.175 144.75 464.165C142.604 461.388 138.312 456.087 136.166 455.961C133.389 455.835 133.768 465.679 133.768 465.679H132.253L130.233 453.311C129.728 450.155 131.243 447.126 134.02 445.612C134.02 445.612 134.651 450.408 138.186 452.427C141.721 454.573 152.325 462.019 152.325 462.019C152.325 462.019 153.587 461.893 155.102 462.145C157.248 462.65 156.87 465.806 154.723 465.806Z" fill="#384187"/>
<path d="M118.114 369.507C118.114 369.507 90.0885 422.642 85.6701 434.758C81.2517 446.874 79.6106 456.971 79.6106 457.981C79.4843 459.495 77.717 460.883 72.5412 460.883C69.8901 460.883 68.6277 459.874 67.9965 458.738C67.4916 457.854 67.3653 456.718 67.8703 455.835C69.5114 452.553 74.6872 442.078 76.5808 437.282C78.8531 431.603 83.7765 405.856 86.4275 397.021C89.0786 388.06 92.1083 378.342 103.849 369.507C103.596 369.507 111.675 361.682 118.114 369.507Z" fill="url(#paint3_linear)"/>
<path d="M135.787 282.548C142.983 252.005 124.678 234.588 124.678 234.588C136.166 223.481 157.248 218.433 157.248 218.433C157.248 218.433 177.32 233.073 174.921 244.559C173.533 251.248 160.782 284.82 160.782 284.82C160.782 284.82 149.042 290.499 135.787 282.548Z" fill="#6165D7"/>
<path d="M119.754 297.693C122.658 288.858 135.787 282.548 135.787 282.548C149.168 290.499 160.908 284.946 160.908 284.946C160.908 284.946 163.559 295.043 161.666 304.382C159.899 313.722 148.411 373.924 148.411 373.924C130.358 377.584 102.712 370.264 102.712 370.264C114.2 349.944 116.725 306.528 119.754 297.693Z" fill="#7A49A5"/>
<path d="M144.119 198.239L138.185 224.617C137.681 226.889 139.7 226.511 142.099 226.132C145.886 225.375 150.936 223.86 152.577 220.957C152.703 220.705 152.829 220.326 152.829 219.948L155.354 201.647C155.607 200.259 154.723 198.744 153.46 198.239L148.537 196.094C146.77 195.21 144.624 196.346 144.119 198.239Z" fill="url(#paint4_linear)"/>
<path d="M151.062 173.123C151.062 173.123 158.005 176.026 162.802 186.123C167.473 196.22 163.938 200.763 159.52 201.395C155.101 202.026 148.411 201.899 141.468 195.463C134.398 189.026 141.973 169.716 151.062 173.123Z" fill="url(#paint5_linear)"/>
<path d="M146.14 190.162C146.14 190.162 140.837 175.521 153.966 175.269L156.996 177.415C156.996 177.415 161.793 169.211 153.966 165.425C146.14 161.512 136.924 164.794 133.642 175.269C130.36 185.871 129.728 192.939 135.283 197.987C140.837 203.035 143.11 197.356 143.11 197.356C143.11 197.356 140.08 192.686 141.342 190.036C142.605 187.511 145.382 190.541 145.382 190.541L146.14 190.162Z" fill="#384187"/>
<path d="M144.624 191.803C144.624 191.803 141.973 184.23 138.439 187.259C134.904 190.288 141.342 194.201 143.867 195.589L144.624 191.803Z" fill="url(#paint6_linear)"/>
<path d="M121.395 242.792C121.395 242.792 175.173 308.421 215.318 233.705C215.318 233.705 216.075 231.811 215.57 229.035C215.318 227.646 216.201 222.724 216.706 220.2C216.833 219.443 216.328 218.685 215.444 218.559C214.813 218.559 214.182 218.812 213.803 219.317L206.481 228.656C205.976 230.549 206.86 232.442 208.501 233.326C209.637 233.831 210.016 235.219 209.258 236.229C178.708 276.237 127.707 232.316 126.697 232.821C123.415 234.588 119.628 236.607 121.395 242.792Z" fill="url(#paint7_linear)"/>
<path opacity="0.49" d="M545.687 214.142C546.444 210.229 547.202 203.919 546.697 196.725C545.434 182.211 538.996 170.221 528.14 161.638C528.771 158.736 529.15 154.697 528.645 150.153C527.635 142.328 523.343 131.222 508.951 122.008C507.436 117.339 503.27 108.882 491.025 102.319C482.062 97.3973 473.478 96.2614 466.913 99.038C464.262 100.174 461.99 101.941 460.349 104.213C458.455 104.591 456.435 105.349 454.668 106.737C452.396 108.378 450.755 110.776 449.619 113.678C448.482 110.649 446.715 108.378 444.569 106.737C442.802 105.349 440.782 104.591 438.888 104.213C437.247 101.941 435.101 100.174 432.324 99.038C425.759 96.2614 417.301 97.3973 408.212 102.319C396.093 109.009 391.801 117.465 390.286 122.008C375.895 131.095 371.602 142.202 370.592 150.153C369.961 154.697 370.466 158.736 371.097 161.638C360.241 170.221 353.803 182.337 352.54 196.725C351.909 203.919 352.793 210.229 353.55 214.142C346.481 222.093 344.966 239.384 350.015 258.82C352.666 269.044 357.337 276.616 363.649 281.16C364.785 281.917 365.795 282.548 366.932 283.179C366.932 285.072 367.436 286.965 368.32 288.859C373.622 299.334 392.179 304.887 408.338 305.771C409.096 305.771 409.979 305.897 410.737 305.897C418.69 305.897 425.002 303.625 429.42 299.082C432.955 295.548 434.596 291.383 435.353 287.975C441.665 287.218 446.336 284.946 449.24 281.034C449.366 280.781 449.619 280.529 449.745 280.402C449.871 280.655 449.997 280.907 450.25 281.034C453.027 284.82 457.698 287.092 464.136 287.975C464.894 291.383 466.535 295.548 470.069 299.082C474.614 303.625 480.926 305.897 488.753 305.897C489.51 305.897 490.394 305.897 491.151 305.771C507.31 304.887 525.867 299.334 531.169 288.859C532.053 286.965 532.558 285.072 532.558 283.179C533.568 282.674 534.704 282.043 535.84 281.16C542.152 276.616 546.823 269.044 549.474 258.82C554.271 239.384 552.756 222.093 545.687 214.142Z" fill="#384187"/>
<path opacity="0.49" d="M445.326 126.047V270.179C445.326 270.179 448.987 282.169 429.546 281.917C429.546 281.917 430.683 300.722 408.464 299.46C386.12 298.198 367.815 288.48 374.127 279.014C374.127 279.014 361.377 278.509 355.823 257.18C350.268 235.85 353.676 219.821 360.241 216.287C360.241 216.287 349.889 182.589 378.167 163.91C378.167 163.91 368.446 141.571 395.714 125.794C395.714 125.794 396.85 115.319 411.242 107.494C424.749 100.174 433.334 103.834 434.975 110.018C434.849 110.144 445.326 107.242 445.326 126.047Z" fill="#444E93"/>
<path opacity="0.49" d="M453.658 126.047V270.179C453.658 270.179 449.997 282.169 469.438 281.917C469.438 281.917 468.302 300.722 490.52 299.46C512.864 298.198 531.169 288.48 524.857 279.014C524.857 279.014 537.607 278.509 543.162 257.18C548.716 235.85 545.308 219.821 538.743 216.287C538.743 216.287 549.095 182.589 520.817 163.91C520.817 163.91 530.538 141.571 503.27 125.794C503.27 125.794 502.134 115.319 487.743 107.494C474.235 100.174 465.651 103.834 464.009 110.018C464.136 110.144 453.658 107.242 453.658 126.047Z" fill="#444E93"/>
<path opacity="0.49" d="M433.334 127.688C433.208 127.688 424.876 125.921 425.886 117.717C426.769 109.892 434.722 109.766 434.849 109.766C435.101 109.766 435.227 109.892 435.227 110.145C435.227 110.397 435.101 110.523 434.849 110.523C434.47 110.523 427.653 110.649 426.769 117.717C426.391 120.872 427.401 123.397 429.799 125.164C431.566 126.426 433.46 126.804 433.46 126.804C433.713 126.804 433.839 127.057 433.839 127.309C433.713 127.562 433.586 127.688 433.334 127.688Z" fill="#91B3FA"/>
<path opacity="0.49" d="M416.67 154.949C415.028 154.949 413.387 154.697 412.125 154.066C410.231 153.308 408.969 152.173 408.843 151.037C408.843 150.784 408.969 150.658 409.221 150.532C409.474 150.532 409.6 150.658 409.726 150.91C409.853 151.794 410.862 152.677 412.504 153.308C415.281 154.444 419.321 154.571 421.719 152.677C423.234 151.415 423.865 149.396 423.36 146.745C421.845 138.163 414.397 137.406 406.444 136.649C404.677 136.522 402.909 136.27 401.142 136.018C397.86 135.513 395.714 134.377 394.956 132.484C393.82 129.833 395.587 127.057 395.714 126.93C395.84 126.678 396.092 126.678 396.219 126.804C396.471 126.93 396.471 127.183 396.345 127.309C396.345 127.309 394.704 129.959 395.714 132.105C396.471 133.62 398.365 134.629 401.268 135.134C403.036 135.387 404.803 135.513 406.57 135.765C414.776 136.522 422.603 137.28 424.244 146.493C424.875 150.153 423.486 152.173 422.35 153.182C420.709 154.444 418.689 154.949 416.67 154.949Z" fill="#91B3FA"/>
<path opacity="0.49" d="M398.238 180.191C396.471 180.191 394.956 179.434 394.451 178.298C394.324 178.046 394.451 177.793 394.703 177.793C394.956 177.667 395.208 177.793 395.208 178.046C395.713 179.182 397.733 179.813 399.626 179.308C400.763 179.055 404.55 177.667 404.171 172.24C403.919 168.832 402.783 166.308 400.763 165.046C398.238 163.532 394.324 163.91 389.906 166.056C381.448 170.094 378.671 165.677 378.544 165.425C378.418 165.172 378.544 164.92 378.671 164.92C378.923 164.794 379.176 164.92 379.176 165.046C379.302 165.172 381.7 168.959 389.401 165.298C394.198 163.027 398.238 162.648 401.015 164.415C403.287 165.803 404.676 168.454 404.929 172.24C405.181 177.162 402.404 179.56 399.753 180.191C399.248 180.191 398.743 180.191 398.238 180.191Z" fill="#91B3FA"/>
<path opacity="0.49" d="M391.169 205.56C390.665 205.56 390.033 205.56 389.402 205.433C385.994 204.929 382.964 202.657 380.565 198.744C378.167 194.832 377.409 191.045 378.419 187.511C380.06 181.58 385.867 178.424 386.12 178.298C386.372 178.172 386.625 178.298 386.625 178.424C386.751 178.677 386.625 178.929 386.499 178.929C386.499 178.929 380.692 182.084 379.177 187.638C378.293 190.919 378.924 194.453 381.197 198.239C383.469 201.899 386.246 204.045 389.402 204.55C389.907 204.676 390.412 204.676 390.917 204.676C395.84 204.676 399.88 201.268 400.006 201.142C400.133 201.016 400.385 201.016 400.637 201.142C400.764 201.268 400.764 201.521 400.637 201.773C400.637 202.026 396.345 205.56 391.169 205.56Z" fill="#91B3FA"/>
<path opacity="0.49" d="M429.545 208.21H429.419C429.167 208.084 429.167 207.831 429.293 207.705C429.293 207.705 431.692 202.657 426.642 194.705C421.592 186.628 411.998 188.395 411.998 188.395C411.746 188.395 411.619 188.269 411.493 188.016C411.493 187.764 411.619 187.638 411.872 187.511C411.998 187.511 414.397 187.007 417.679 187.638C420.582 188.143 424.748 189.783 427.526 194.201C432.828 202.657 430.303 207.831 430.177 208.084C429.924 208.084 429.672 208.21 429.545 208.21Z" fill="#91B3FA"/>
<path opacity="0.49" d="M417.932 234.967C417.805 234.967 417.679 234.967 417.679 234.84C417.553 234.714 417.553 234.462 417.679 234.209C419.068 233.073 420.583 231.18 420.33 228.656C419.951 225.375 416.669 221.715 410.61 218.433C404.045 214.773 398.617 213.763 394.577 215.53C389.906 217.55 388.644 222.598 388.644 222.724C388.644 222.977 388.391 223.103 388.139 222.977C387.886 222.977 387.76 222.724 387.886 222.472C387.886 222.219 389.275 216.919 394.325 214.773C398.617 212.88 404.298 213.889 411.115 217.676C417.427 221.21 420.835 224.87 421.214 228.53C421.466 231.433 419.825 233.578 418.31 234.84C418.184 234.967 418.058 234.967 417.932 234.967Z" fill="#91B3FA"/>
<path opacity="0.49" d="M425.759 261.092C422.35 261.092 418.942 259.325 417.048 256.17C416.922 255.918 417.048 255.665 417.175 255.665C417.427 255.539 417.68 255.665 417.68 255.791C419.952 259.704 424.875 261.345 429.041 259.578C433.838 257.558 435.732 252.131 434.091 244.937C431.692 234.967 431.692 228.909 433.838 225.753C434.848 224.239 436.489 223.355 438.762 222.977C444.064 222.219 445.579 224.996 445.579 225.122C445.705 225.375 445.579 225.627 445.452 225.627C445.2 225.753 444.947 225.627 444.947 225.501C444.947 225.375 443.685 223.103 439.014 223.86C436.994 224.113 435.606 224.87 434.722 226.258C432.702 229.161 432.828 235.345 435.101 244.811C436.111 248.85 435.984 252.384 434.848 255.16C433.838 257.685 432.071 259.451 429.672 260.461C428.284 260.84 427.021 261.092 425.759 261.092Z" fill="#91B3FA"/>
<path opacity="0.49" d="M389.402 244.432C381.575 244.432 377.661 233.957 374.505 225.375C373.622 223.103 372.864 220.957 372.107 219.19C370.844 216.288 369.203 214.521 367.184 214.142C364.406 213.511 361.755 215.783 361.755 215.909C361.629 216.035 361.376 216.035 361.124 215.909C360.998 215.783 360.998 215.53 361.124 215.278C361.25 215.152 364.028 212.627 367.31 213.385C369.582 213.89 371.349 215.783 372.864 218.938C373.622 220.831 374.505 222.977 375.263 225.248C377.03 230.044 378.924 235.345 381.701 239.005C384.731 243.17 388.139 244.559 392.305 243.17C395.84 242.034 397.86 240.394 398.491 238.248C399.501 234.714 396.219 231.054 396.219 231.054C396.092 230.928 396.092 230.675 396.219 230.423C396.345 230.297 396.597 230.297 396.85 230.423C396.976 230.549 400.385 234.462 399.248 238.374C398.617 240.772 396.345 242.665 392.558 243.928C391.548 244.306 390.412 244.432 389.402 244.432Z" fill="#91B3FA"/>
<path opacity="0.49" d="M375.137 278.635C375.011 278.635 375.011 278.635 374.885 278.635C374.632 278.509 374.632 278.257 374.759 278.131C381.197 266.898 391.044 263.238 391.17 263.238C391.422 263.112 391.675 263.238 391.675 263.49C391.801 263.743 391.675 263.995 391.422 263.995C391.296 263.995 381.828 267.529 375.39 278.509C375.39 278.509 375.264 278.635 375.137 278.635Z" fill="#91B3FA"/>
<path opacity="0.49" d="M428.663 281.286C428.536 281.286 428.41 281.286 428.41 281.16C424.118 276.995 419.7 277.626 415.281 278.257C411.242 278.888 407.454 279.393 404.172 276.237C401.647 273.839 400.511 271.315 400.637 268.539C400.764 263.49 405.182 259.83 405.434 259.704C405.561 259.578 405.813 259.578 406.066 259.704C406.192 259.83 406.192 260.082 406.066 260.335C406.066 260.335 401.774 263.995 401.521 268.539C401.395 271.063 402.531 273.461 404.803 275.606C407.833 278.509 411.368 277.878 415.155 277.373C419.447 276.742 424.37 275.985 428.915 280.402C429.041 280.529 429.041 280.781 428.915 281.033C428.915 281.286 428.789 281.286 428.663 281.286Z" fill="#91B3FA"/>
<path opacity="0.49" d="M472.846 128.697C471.331 128.697 469.816 128.319 468.048 127.562C465.145 126.299 463.251 124.406 462.368 121.882C460.6 116.96 463.504 111.407 463.63 111.154C463.756 110.902 464.009 110.902 464.135 111.028C464.388 111.154 464.388 111.407 464.261 111.533C464.261 111.533 461.484 116.96 463.125 121.63C463.883 123.901 465.65 125.668 468.301 126.804C473.603 129.202 477.769 127.183 479.41 124.028C480.799 121.63 480.42 118.979 478.4 117.717C478.274 117.591 478.148 117.338 478.274 117.086C478.4 116.96 478.653 116.834 478.905 116.96C481.177 118.474 481.682 121.503 480.168 124.406C478.779 126.93 476.254 128.697 472.846 128.697Z" fill="#91B3FA"/>
<path opacity="0.49" d="M480.546 143.464C480.42 143.464 480.168 143.338 480.168 143.212C480.168 143.085 478.653 138.92 480.925 135.891C482.44 133.872 485.091 132.989 488.878 133.241C495.821 133.493 499.987 132.862 501.755 130.969C502.512 130.212 502.891 129.076 502.764 127.688C502.764 127.435 502.891 127.309 503.143 127.183C503.396 127.183 503.522 127.309 503.522 127.561C503.648 129.202 503.269 130.464 502.259 131.474C500.24 133.493 496.074 134.251 488.752 133.998C485.217 133.872 482.692 134.629 481.43 136.396C479.536 139.047 480.799 142.833 480.799 142.959C480.925 143.212 480.799 143.464 480.546 143.464C480.672 143.464 480.672 143.464 480.546 143.464Z" fill="#91B3FA"/>
<path opacity="0.49" d="M462.494 162.648C462.116 162.648 461.989 162.396 461.989 162.269C461.989 162.017 462.116 161.891 462.368 161.891C464.893 161.891 467.67 159.745 469.185 156.716C470.952 153.182 470.574 149.27 468.301 146.493C466.66 144.474 465.019 143.464 463.378 143.464C461.232 143.59 459.717 145.61 459.717 145.61C459.591 145.736 459.338 145.862 459.086 145.736C458.96 145.61 458.833 145.357 458.96 145.231C459.086 145.105 460.601 142.833 463.252 142.707C465.145 142.581 467.039 143.716 468.933 145.988C471.457 149.017 471.836 153.182 469.942 157.095C468.301 160.376 465.398 162.648 462.494 162.648Z" fill="#91B3FA"/>
<path opacity="0.49" d="M498.599 169.716C496.326 169.716 493.423 169.085 490.014 166.939C487.111 165.172 485.091 162.774 484.081 159.871C483.197 157.473 483.197 154.697 483.829 152.299C484.839 148.639 487.237 146.241 489.762 146.241C491.782 146.241 493.297 146.746 494.18 147.881C495.19 149.27 494.811 150.911 494.811 151.037C494.811 151.289 494.559 151.415 494.306 151.289C494.054 151.289 493.928 151.037 494.054 150.784C494.054 150.784 494.306 149.396 493.549 148.386C492.918 147.503 491.655 147.124 489.762 147.124C487.616 147.124 485.47 149.396 484.586 152.551C483.45 156.716 484.334 162.522 490.393 166.308C494.685 168.959 498.725 169.59 502.007 168.328C504.532 167.318 505.921 165.551 505.921 165.551C506.047 165.425 506.299 165.299 506.552 165.425C506.678 165.551 506.804 165.803 506.678 166.056C506.678 166.182 505.289 168.075 502.512 169.085C501.376 169.463 500.114 169.716 498.599 169.716Z" fill="#91B3FA"/>
<path opacity="0.49" d="M497.967 206.822C495.316 206.822 492.034 205.938 488.373 203.035C482.692 198.618 482.566 193.191 483.449 189.405C484.333 185.366 486.605 182.337 486.732 182.211C486.858 182.084 487.11 181.958 487.363 182.084C487.489 182.211 487.615 182.463 487.489 182.715C487.489 182.715 485.217 185.745 484.333 189.657C483.197 194.832 484.712 199.123 489.004 202.404C493.296 205.812 497.462 206.822 501.376 205.433C504.279 204.424 506.046 202.404 506.046 202.404C506.173 202.278 506.425 202.152 506.678 202.404C506.804 202.531 506.93 202.783 506.678 203.035C506.551 203.162 504.784 205.181 501.628 206.317C500.618 206.569 499.356 206.822 497.967 206.822Z" fill="#91B3FA"/>
<path opacity="0.49" d="M517.914 194.705C515.768 194.705 513.37 193.696 510.971 191.803C506.048 187.764 504.659 181.706 505.543 177.415C506.174 174.007 508.32 171.609 511.224 170.725C518.167 168.706 519.556 165.046 519.556 165.046C519.682 164.794 519.808 164.667 520.061 164.794C520.313 164.92 520.439 165.046 520.313 165.298C520.313 165.425 518.798 169.337 511.476 171.483C508.825 172.24 507.058 174.512 506.427 177.541C505.669 181.453 506.932 187.259 511.603 191.045C515.011 193.948 518.672 194.453 521.323 192.686C523.09 191.424 523.974 189.405 523.343 187.638C523.217 187.385 523.343 187.133 523.595 187.133C523.848 187.007 524.1 187.133 524.1 187.385C524.858 189.531 523.848 191.929 521.828 193.317C520.565 194.327 519.303 194.705 517.914 194.705Z" fill="#91B3FA"/>
<path opacity="0.49" d="M508.951 242.792C506.174 242.792 504.154 242.034 502.765 240.394C500.619 237.996 501.124 234.588 501.124 234.462C501.124 234.209 501.376 234.083 501.629 234.083C501.881 234.083 502.008 234.336 502.008 234.588C502.008 234.588 501.629 237.743 503.522 239.889C504.659 241.277 506.552 241.908 509.077 241.908C517.03 241.908 523.721 229.413 525.11 224.239C525.236 223.86 525.362 223.355 525.488 222.977C526.246 219.948 527.256 216.161 530.159 214.773C532.179 213.763 534.956 214.142 538.365 215.909C538.617 216.035 538.617 216.288 538.491 216.414C538.365 216.666 538.112 216.666 537.986 216.54C534.83 215.025 532.305 214.647 530.538 215.404C527.887 216.54 527.003 220.074 526.246 223.103C526.119 223.608 525.993 223.986 525.867 224.365C524.478 229.287 517.914 242.792 508.951 242.792Z" fill="#91B3FA"/>
<path opacity="0.49" d="M477.896 257.684C477.77 257.684 477.77 257.684 477.896 257.684C472.847 256.422 468.807 254.277 465.903 251.374C463.379 248.85 461.737 245.821 460.98 242.287C459.339 234.336 463.126 226.637 467.418 223.355C470.574 220.957 474.235 220.452 478.527 221.714C481.81 222.724 484.587 224.617 485.849 225.501C486.102 225.627 486.354 225.879 486.48 225.879C486.607 225.879 486.733 226.132 486.733 226.258C486.733 226.51 486.48 226.637 486.228 226.637C486.102 226.637 485.975 226.51 485.344 226.132C478.401 221.21 472.468 220.452 467.923 223.986C463.757 227.142 460.349 234.84 461.737 242.161C462.747 247.209 466.408 253.898 477.896 256.927C478.149 256.927 478.275 257.18 478.149 257.432C478.149 257.558 478.022 257.684 477.896 257.684Z" fill="#91B3FA"/>
<path opacity="0.49" d="M469.69 281.286C469.438 281.286 469.312 281.16 469.312 280.907C469.312 280.781 469.312 278.131 471.458 275.859C473.477 273.84 476.633 272.83 480.926 272.83C488.752 272.956 494.307 271.189 495.696 268.286C496.579 266.393 495.822 263.869 493.423 260.966C493.297 260.84 493.297 260.587 493.423 260.335C493.55 260.209 493.802 260.209 494.055 260.335C496.706 263.49 497.589 266.267 496.453 268.539C494.938 271.82 489.257 273.713 480.926 273.587C476.886 273.587 473.982 274.471 472.089 276.364C470.069 278.383 470.069 280.781 470.069 280.781C470.069 281.034 469.816 281.286 469.69 281.286Z" fill="#91B3FA"/>
<path opacity="0.49" d="M523.973 278.888C523.847 278.888 523.721 278.762 523.594 278.635C518.923 267.403 508.824 266.141 508.698 266.141C508.446 266.141 508.319 265.888 508.319 265.636C508.319 265.383 508.572 265.257 508.824 265.257C508.95 265.257 511.602 265.636 514.758 267.403C517.787 269.043 521.827 272.199 524.352 278.383C524.478 278.635 524.352 278.888 524.099 278.888H523.973Z" fill="#91B3FA"/>
<g opacity="0.85">
<path opacity="0.85" d="M665.994 184.861C658.546 184.609 633.045 184.104 624.082 184.356C623.072 184.356 622.315 185.114 622.315 186.123C622.189 190.919 621.81 204.424 622.062 212.249C622.189 213.89 623.451 215.152 625.092 215.152C632.919 215.278 654.758 215.656 664.731 214.899C665.994 214.773 666.877 213.89 667.004 212.627C667.509 207.453 668.771 193.822 668.392 187.133C668.14 185.745 667.256 184.861 665.994 184.861Z" fill="#384187"/>
<path opacity="0.85" d="M663.723 186.754C657.663 186.502 637.465 185.618 630.017 185.871C628.88 185.871 627.997 186.754 627.997 187.89C627.744 192.307 627.113 203.919 627.618 210.482C627.744 211.618 628.628 212.627 629.89 212.627C636.076 213.006 654.886 213.889 662.208 213.637C663.344 213.637 664.354 212.627 664.48 211.491C664.859 206.695 665.995 194.201 665.616 188.647C665.616 187.638 664.733 186.754 663.723 186.754Z" fill="#FE7062"/>
</g>
<path opacity="0.49" d="M683.542 170.599C683.542 171.356 682.91 171.861 682.279 171.861H610.701C609.944 171.861 609.439 171.23 609.439 170.599L608.808 129.581C608.808 128.823 609.691 127.435 611.206 127.561L681.017 125.794C681.901 125.794 682.784 126.173 683.415 126.804C684.047 127.435 684.425 128.319 684.425 129.202L683.542 170.599Z" fill="#384187"/>
<path opacity="0.49" d="M682.153 169.337C682.153 169.968 681.648 170.599 680.89 170.599H612.469C611.837 170.599 611.206 170.094 611.206 169.337L610.701 132.105C610.827 129.833 612.721 129.076 613.983 129.076L680.89 127.309C681.522 127.309 682.153 127.561 682.658 127.94C683.163 128.445 683.415 128.95 683.289 129.707L682.153 169.337Z" fill="#444E93"/>
<path opacity="0.49" d="M611.963 151.668C611.837 151.668 611.711 151.541 611.711 151.415V148.386C611.711 148.26 611.837 148.134 611.963 148.134C612.09 148.134 612.216 148.26 612.216 148.386V151.415C612.216 151.668 612.09 151.668 611.963 151.668Z" fill="#91B3FA"/>
<path opacity="0.49" d="M611.837 144.347C611.711 144.347 611.584 144.221 611.584 144.095L611.458 132.484C611.458 131.726 611.711 131.095 612.215 130.59C613.099 129.707 614.362 129.833 614.488 129.833L635.822 129.202C635.949 129.202 636.075 129.328 636.075 129.455C636.075 129.581 635.949 129.707 635.822 129.707L614.488 130.338C614.362 130.338 613.225 130.338 612.468 130.969C612.089 131.348 611.837 131.853 611.837 132.61L611.963 144.221C612.089 144.221 611.963 144.347 611.837 144.347Z" fill="#91B3FA"/>
<path opacity="0.13" d="M614.236 167.318C614.362 164.289 614.236 137.027 614.11 134.629C613.983 132.231 617.644 131.853 623.199 131.6C628.88 131.348 676.346 130.338 677.608 130.212C680.385 129.959 680.89 134.124 680.638 142.959C680.385 149.648 680.133 160.755 679.88 165.803C679.88 167.318 678.618 168.454 677.103 168.58C665.615 168.58 621.81 168.706 618.907 168.832C615.624 168.832 614.236 168.58 614.236 167.318Z" fill="url(#paint8_linear)"/>
<path opacity="0.49" d="M688.212 175.395H606.156C605.525 175.395 605.146 174.89 605.146 174.385V172.871C605.146 172.24 605.652 171.861 606.156 171.861H688.212C688.843 171.861 689.222 172.366 689.222 172.871V174.385C689.348 174.89 688.843 175.395 688.212 175.395Z" fill="#384187"/>
<path opacity="0.49" d="M637.968 268.791L636.201 284.567H656.652L654.001 268.791H637.968Z" fill="#384187"/>
<path opacity="0.49" d="M603.632 229.918V266.141C603.632 269.17 606.03 271.568 608.934 271.568C622.189 271.946 668.393 272.704 681.017 272.577C683.163 272.577 684.93 270.81 685.056 268.665C685.309 260.209 685.688 240.015 684.173 230.675C683.92 228.656 682.153 227.268 680.133 227.142C669.024 226.763 620.043 225.627 607.419 226.006C605.273 225.879 603.632 227.646 603.632 229.918Z" fill="#384187"/>
<path d="M605.904 229.666V263.995C605.904 265.762 607.293 267.15 609.06 267.15L679.25 268.034C681.017 268.034 682.406 266.645 682.406 265.005L682.532 230.928C682.532 229.666 681.522 228.656 680.259 228.656L608.303 227.142C607.04 227.268 605.904 228.277 605.904 229.666Z" fill="#444E93"/>
<path opacity="0.49" d="M682.91 269.675L605.904 268.412C605.778 268.412 605.651 268.286 605.651 268.16C605.651 268.034 605.778 267.908 605.904 267.908L682.91 269.17C683.036 269.17 683.162 269.296 683.162 269.422C683.036 269.548 683.036 269.675 682.91 269.675Z" fill="#91B3FA"/>
<path opacity="0.49" d="M645.164 271.315C644.659 271.315 644.154 270.81 644.154 270.306C644.154 269.801 644.659 269.296 645.164 269.296C645.669 269.296 646.174 269.801 646.174 270.306C646.174 270.81 645.669 271.315 645.164 271.315ZM645.164 269.675C644.785 269.675 644.533 269.927 644.533 270.306C644.533 270.684 644.785 270.937 645.164 270.937C645.543 270.937 645.795 270.684 645.795 270.306C645.669 269.927 645.417 269.675 645.164 269.675Z" fill="#91B3FA"/>
<path opacity="0.49" d="M661.07 287.849H631.152C630.394 287.849 629.763 287.218 629.889 286.587L630.268 285.072C630.394 284.567 630.899 284.315 631.53 284.315L660.439 283.431C661.07 283.431 661.575 283.684 661.702 284.189L662.333 286.587C662.459 287.218 661.828 287.849 661.07 287.849Z" fill="#384187"/>
<path opacity="0.49" d="M647.184 284.82C647.058 284.82 646.932 284.694 646.932 284.567C646.932 284.441 647.058 284.315 647.184 284.315H648.447C648.573 284.315 648.699 284.441 648.699 284.567C648.699 284.694 648.573 284.82 648.447 284.82H647.184Z" fill="#91B3FA"/>
<path opacity="0.49" d="M630.899 287.092C630.773 287.092 630.646 286.965 630.646 286.839L630.773 285.703C630.899 285.072 631.404 284.567 632.035 284.567L645.164 284.315C645.29 284.315 645.417 284.441 645.417 284.567C645.417 284.694 645.29 284.82 645.164 284.82L632.035 285.072C631.53 285.072 631.151 285.451 631.151 285.829L631.025 286.965C631.151 287.092 631.025 287.092 630.899 287.092Z" fill="#91B3FA"/>
<path opacity="0.49" d="M603.253 152.172L576.364 151.289C573.839 151.163 571.693 149.143 571.567 146.619L571.44 142.959C571.314 140.94 569.673 139.425 567.779 139.425H490.647C487.87 139.425 485.724 137.153 485.724 134.503V124.28C485.724 123.901 485.976 123.649 486.355 123.649C486.734 123.649 486.986 123.901 486.986 124.28V134.503C486.986 136.522 488.627 138.163 490.647 138.163H567.779C570.43 138.163 572.577 140.182 572.703 142.833L572.829 146.493C572.955 148.386 574.47 150.027 576.364 150.027L603.253 150.91C603.632 150.91 603.884 151.163 603.884 151.541C603.884 151.92 603.632 152.172 603.253 152.172Z" fill="#444E93"/>
<path opacity="0.49" d="M518.547 155.833C518.294 155.833 518.168 155.706 518.168 155.454C518.168 155.202 518.294 155.075 518.547 154.949C519.304 154.823 594.796 154.949 603.38 154.949C603.632 154.949 603.759 155.075 603.759 155.328C603.759 155.58 603.632 155.706 603.38 155.706C602.37 155.833 519.809 155.706 518.547 155.833Z" fill="url(#paint9_linear)"/>
<path opacity="0.49" d="M599.214 248.345H572.325C569.295 248.345 566.77 245.821 566.77 242.792V242.161C566.77 240.898 566.265 239.889 565.382 239.005C564.498 238.248 563.362 237.743 562.099 237.869L477.266 244.937C475.751 245.063 474.237 244.559 473.1 243.549C471.964 242.539 471.333 241.151 471.333 239.51L470.828 211.744C470.828 208.841 472.974 206.443 475.751 206.191L489.89 204.802C492.036 204.55 493.804 202.657 493.804 200.511L493.425 178.803C493.425 178.424 493.678 178.172 494.056 178.172C494.435 178.172 494.687 178.424 494.687 178.803L495.066 200.511C495.066 203.414 492.92 205.812 490.143 206.064L476.004 207.453C473.858 207.705 472.091 209.598 472.091 211.744L472.595 239.51C472.595 240.646 473.1 241.782 473.984 242.539C474.868 243.296 476.004 243.675 477.266 243.675L562.099 236.607C563.614 236.481 565.129 236.986 566.265 237.996C567.401 239.005 568.033 240.52 568.033 242.034V242.665C568.033 245.063 569.926 246.957 572.325 246.957H599.214C599.593 246.957 599.845 247.209 599.845 247.588C599.719 248.092 599.466 248.345 599.214 248.345Z" fill="#444E93"/>
<path opacity="0.49" d="M554.02 289.489C553.894 289.489 553.894 289.489 554.02 289.489L512.361 288.858C509.205 288.858 506.554 286.334 506.428 283.053L505.923 267.276C505.796 264.752 503.776 262.733 501.125 262.733H468.429C465.273 262.733 462.622 260.209 462.496 257.053L459.214 194.579C459.088 192.686 459.845 190.919 461.234 189.783C462.622 188.521 464.516 188.016 466.283 188.395L473.858 189.783C474.236 189.783 474.363 190.162 474.363 190.54C474.363 190.919 473.984 191.045 473.605 191.045L466.031 189.657C464.642 189.405 463.127 189.783 461.991 190.793C460.855 191.803 460.35 193.191 460.35 194.579L463.632 257.053C463.758 259.578 465.905 261.597 468.429 261.597H501.125C504.408 261.597 507.059 264.121 507.059 267.403L507.564 283.179C507.69 285.703 509.71 287.723 512.235 287.723L553.767 288.354C555.156 288.354 556.292 287.849 557.302 286.839C558.312 285.829 558.691 284.567 558.564 283.305L557.176 256.927C557.05 255.286 557.681 253.646 558.817 252.51C559.953 251.248 561.468 250.617 563.109 250.617H599.845C600.224 250.617 600.476 250.869 600.476 251.248C600.476 251.626 600.224 251.879 599.845 251.879H563.109C561.847 251.879 560.584 252.384 559.701 253.393C558.817 254.403 558.312 255.539 558.438 256.927L559.827 283.305C559.953 284.946 559.322 286.587 558.186 287.723C557.176 288.858 555.661 289.489 554.02 289.489Z" fill="#444E93"/>
<path opacity="0.49" d="M533.695 272.956C532.054 272.956 530.413 272.325 529.15 271.063C527.888 269.801 527.257 268.286 527.257 266.519V262.102C527.257 261.849 527.383 261.723 527.636 261.723C527.888 261.723 528.014 261.849 528.014 262.102V266.519C528.014 268.034 528.645 269.422 529.655 270.432C530.665 271.441 532.18 272.072 533.569 272.072L567.401 271.694C570.431 271.694 572.956 269.17 572.956 266.141V262.607C572.956 259.073 575.859 256.17 579.394 256.17H597.951C598.204 256.17 598.33 256.296 598.33 256.549C598.33 256.801 598.204 256.927 597.951 256.927H579.394C576.364 256.927 573.839 259.451 573.839 262.48V266.014C573.839 269.548 571.062 272.325 567.527 272.451L533.695 272.956Z" fill="url(#paint10_linear)"/>
<path opacity="0.49" d="M497.085 224.87C494.308 224.87 492.036 222.85 491.909 220.074L491.531 215.278C491.405 213.763 491.91 212.375 492.919 211.239C493.929 210.103 495.318 209.472 496.833 209.472H506.68C507.816 209.472 508.952 208.967 509.709 208.084C510.467 207.2 510.845 206.064 510.719 204.929L510.467 203.162C510.214 201.647 510.719 200.133 511.603 198.997C512.613 197.861 514.001 197.23 515.516 197.103L550.99 196.22C553.767 196.094 556.166 198.239 556.418 201.016L556.671 204.171C556.797 206.317 558.69 207.958 560.836 207.831H562.478L561.846 199.123C561.72 197.608 562.225 196.22 563.235 195.084C564.245 194.074 565.634 193.443 567.148 193.443L619.159 193.822C619.538 193.822 619.79 194.074 619.79 194.453C619.79 194.832 619.538 195.084 619.159 195.084L567.148 194.705C566.012 194.705 565.002 195.21 564.119 195.968C563.361 196.851 562.982 197.861 563.109 198.997L563.74 207.705L619.285 205.938C619.664 205.938 619.917 206.191 619.917 206.569C619.917 206.948 619.664 207.2 619.285 207.2L563.866 208.967L564.497 216.54C564.624 217.928 564.119 219.316 563.235 220.452C562.225 221.588 560.963 222.219 559.574 222.219L497.843 224.87C497.338 224.87 497.212 224.87 497.085 224.87ZM496.707 210.86C495.57 210.86 494.561 211.365 493.677 212.122C492.919 213.006 492.541 214.016 492.667 215.152L493.046 219.948C493.298 222.093 495.065 223.734 497.212 223.608L558.943 220.957C560.079 220.957 561.089 220.452 561.846 219.569C562.604 218.685 562.982 217.676 562.856 216.54L562.225 208.967H560.584C557.807 209.093 555.408 206.948 555.156 204.171L554.903 201.016C554.777 198.87 552.883 197.23 550.737 197.356L515.264 198.239C514.128 198.239 512.992 198.744 512.234 199.628C511.477 200.511 511.224 201.647 511.35 202.783L511.603 204.55C511.855 206.064 511.35 207.579 510.34 208.715C509.331 209.851 507.942 210.482 506.427 210.482L496.707 210.86Z" fill="#444E93"/>
<path opacity="0.49" d="M568.411 217.045C568.284 217.045 568.284 217.045 568.411 217.045L527.762 216.666C527.509 216.666 527.383 216.54 527.383 216.287C527.383 216.035 527.509 215.909 527.762 215.909L568.411 216.287C569.294 216.287 570.052 216.035 570.557 215.404C571.188 214.773 571.441 214.016 571.441 213.258L571.062 205.307C571.062 204.297 571.314 203.288 572.072 202.531C572.829 201.773 573.713 201.395 574.849 201.395L619.159 201.142C619.412 201.142 619.538 201.268 619.538 201.521C619.538 201.773 619.412 201.899 619.159 201.899L574.849 202.152C574.091 202.152 573.334 202.531 572.703 203.035C572.198 203.666 571.819 204.424 571.945 205.181L572.324 213.132C572.324 214.142 571.945 215.152 571.314 215.909C570.304 216.54 569.421 217.045 568.411 217.045Z" fill="url(#paint11_linear)"/>
<g opacity="0.85" class="flicker1">
<path opacity="0.85" d="M474.362 249.228C477.77 249.228 480.547 246.452 480.547 243.044C480.547 239.636 477.77 236.86 474.362 236.86C470.953 236.86 468.176 239.636 468.176 243.044C468.176 246.452 470.953 249.228 474.362 249.228Z" fill="url(#paint12_linear)"/>
<path opacity="0.85" d="M474.361 248.976C477.643 248.976 480.294 246.326 480.294 243.044C480.294 239.763 477.643 237.112 474.361 237.112C471.079 237.112 468.428 239.763 468.428 243.044C468.428 246.326 471.079 248.976 474.361 248.976Z" fill="url(#paint13_linear)"/>
<path opacity="0.85" d="M473.982 247.209C476.507 247.209 478.527 245.19 478.527 242.665C478.527 240.141 476.507 238.122 473.982 238.122C471.457 238.122 469.438 240.141 469.438 242.665C469.438 245.063 471.457 247.209 473.982 247.209Z" fill="url(#paint14_linear)"/>
</g>
<g opacity="0.85" class="flicker2">
<path opacity="0.85" d="M523.848 229.918C528.898 229.918 532.937 225.879 532.937 220.831C532.937 215.783 528.898 211.744 523.848 211.744C518.798 211.744 514.759 215.783 514.759 220.831C514.759 225.879 518.798 229.918 523.848 229.918Z" fill="url(#paint15_linear)"/>
<path opacity="0.85" d="M523.848 229.539C528.646 229.539 532.559 225.627 532.559 220.831C532.559 216.035 528.646 212.122 523.848 212.122C519.051 212.122 515.138 216.035 515.138 220.831C515.011 225.627 518.925 229.539 523.848 229.539Z" fill="#FE7062"/>
<path opacity="0.85" d="M523.216 226.889C526.877 226.889 529.907 223.86 529.907 220.2C529.907 216.54 526.877 213.511 523.216 213.511C519.555 213.511 516.525 216.54 516.525 220.2C516.525 223.86 519.555 226.889 523.216 226.889Z" fill="url(#paint16_linear)"/>
</g>
<g opacity="0.49" class="flicker2">
<path opacity="0.49" d="M526.499 267.403C529.908 267.403 532.685 264.626 532.685 261.218C532.685 257.811 529.908 255.034 526.499 255.034C523.091 255.034 520.313 257.811 520.313 261.218C520.313 264.626 523.091 267.403 526.499 267.403Z" fill="url(#paint17_linear)"/>
<path opacity="0.49" d="M526.499 267.275C529.781 267.275 532.432 264.625 532.432 261.344C532.432 258.062 529.781 255.412 526.499 255.412C523.216 255.412 520.565 258.062 520.565 261.344C520.565 264.499 523.216 267.275 526.499 267.275Z" fill="url(#paint18_linear)"/>
<path opacity="0.49" d="M526.121 265.383C528.646 265.383 530.665 263.364 530.665 260.84C530.665 258.316 528.646 256.296 526.121 256.296C523.596 256.296 521.576 258.316 521.576 260.84C521.576 263.364 523.596 265.383 526.121 265.383Z" fill="url(#paint19_linear)"/>
</g>
<g opacity="0.85" class="flicker1">
<path opacity="0.85" d="M484.083 268.286C487.492 268.286 490.269 265.51 490.269 262.102C490.269 258.694 487.492 255.917 484.083 255.917C480.675 255.917 477.897 258.694 477.897 262.102C477.897 265.51 480.675 268.286 484.083 268.286Z" fill="url(#paint20_linear)"/>
<path opacity="0.85" d="M484.083 268.16C487.365 268.16 490.016 265.51 490.016 262.228C490.016 258.947 487.365 256.296 484.083 256.296C480.801 256.296 478.15 258.947 478.15 262.228C478.023 265.383 480.801 268.16 484.083 268.16Z" fill="url(#paint21_linear)"/>
<path opacity="0.85" d="M483.704 266.267C486.229 266.267 488.248 264.247 488.248 261.723C488.248 259.199 486.229 257.18 483.704 257.18C481.179 257.18 479.159 259.199 479.159 261.723C479.159 264.247 481.179 266.267 483.704 266.267Z" fill="url(#paint22_linear)"/>
</g>
<g opacity="0.49" class="flicker1">
<path opacity="0.49" d="M511.224 248.597C514.632 248.597 517.41 245.821 517.41 242.413C517.41 239.005 514.632 236.229 511.224 236.229C507.815 236.229 505.038 239.005 505.038 242.413C505.038 245.821 507.815 248.597 511.224 248.597Z" fill="url(#paint23_linear)"/>
<path opacity="0.49" d="M511.224 248.345C514.506 248.345 517.157 245.695 517.157 242.413C517.157 239.132 514.506 236.481 511.224 236.481C507.941 236.481 505.29 239.132 505.29 242.413C505.164 245.695 507.941 248.345 511.224 248.345Z" fill="url(#paint24_linear)"/>
<path opacity="0.49" d="M510.719 246.452C513.244 246.452 515.264 244.432 515.264 241.908C515.264 239.384 513.244 237.365 510.719 237.365C508.195 237.365 506.175 239.384 506.175 241.908C506.301 244.432 508.321 246.452 510.719 246.452Z" fill="url(#paint25_linear)"/>
</g>
<g opacity="0.85" class="flicker2">
<path opacity="0.85" d="M494.939 184.356C498.347 184.356 501.124 181.58 501.124 178.172C501.124 174.764 498.347 171.988 494.939 171.988C491.53 171.988 488.753 174.764 488.753 178.172C488.753 181.58 491.53 184.356 494.939 184.356Z" fill="url(#paint26_linear)"/>
<path opacity="0.85" d="M494.939 184.104C498.221 184.104 500.872 181.453 500.872 178.172C500.872 174.89 498.221 172.24 494.939 172.24C491.657 172.24 489.006 174.89 489.006 178.172C489.006 181.453 491.657 184.104 494.939 184.104Z" fill="url(#paint27_linear)"/>
<path opacity="0.85" d="M494.56 182.337C497.085 182.337 499.105 180.317 499.105 177.793C499.105 175.269 497.085 173.25 494.56 173.25C492.035 173.25 490.016 175.269 490.016 177.793C490.016 180.317 492.035 182.337 494.56 182.337Z" fill="url(#paint28_linear)"/>
</g>
<g opacity="0.85" class="flicker1">
<path opacity="0.85" d="M475.876 197.482C480.169 197.482 483.577 194.074 483.577 189.783C483.577 185.492 480.169 182.084 475.876 182.084C471.584 182.084 468.176 185.492 468.176 189.783C468.176 194.074 471.711 197.482 475.876 197.482Z" fill="url(#paint29_linear)"/>
<path opacity="0.85" d="M475.876 197.23C479.916 197.23 483.324 193.948 483.324 189.783C483.324 185.618 480.042 182.337 475.876 182.337C471.71 182.337 468.428 185.618 468.428 189.783C468.428 193.948 471.836 197.23 475.876 197.23Z" fill="url(#paint30_linear)"/>
<path opacity="0.85" d="M475.371 194.958C478.527 194.958 481.052 192.434 481.052 189.278C481.052 186.123 478.527 183.599 475.371 183.599C472.215 183.599 469.69 186.123 469.69 189.278C469.69 192.434 472.341 194.958 475.371 194.958Z" fill="url(#paint31_linear)"/>
</g>
<g opacity="0.85" class="flicker2">
<path opacity="0.85" d="M519.178 160.755C522.586 160.755 525.364 157.978 525.364 154.57C525.364 151.163 522.586 148.386 519.178 148.386C515.77 148.386 512.992 151.163 512.992 154.57C512.992 157.978 515.77 160.755 519.178 160.755Z" fill="url(#paint32_linear)"/>
<path opacity="0.85" d="M519.177 160.502C522.46 160.502 525.111 157.852 525.111 154.57C525.111 151.289 522.46 148.639 519.177 148.639C515.895 148.639 513.244 151.289 513.244 154.57C513.244 157.852 515.895 160.502 519.177 160.502Z" fill="url(#paint33_linear)"/>
<path opacity="0.85" d="M518.799 158.735C521.323 158.735 523.343 156.716 523.343 154.192C523.343 151.668 521.323 149.648 518.799 149.648C516.274 149.648 514.254 151.668 514.254 154.192C514.254 156.716 516.274 158.735 518.799 158.735Z" fill="url(#paint34_linear)"/>
</g>
<g opacity="0.85" class="flicker1">
<path opacity="0.85" d="M474.994 164.541C479.286 164.541 482.694 161.133 482.694 156.842C482.694 152.551 479.286 149.143 474.994 149.143C470.701 149.143 467.293 152.551 467.293 156.842C467.293 161.133 470.701 164.541 474.994 164.541Z" fill="url(#paint35_linear)"/>
<path opacity="0.85" d="M474.993 164.289C479.033 164.289 482.441 161.007 482.441 156.842C482.441 152.804 479.159 149.396 474.993 149.396C470.953 149.396 467.545 152.677 467.545 156.842C467.545 161.007 470.827 164.289 474.993 164.289Z" fill="url(#paint36_linear)"/>
<path opacity="0.85" d="M474.489 162.017C477.645 162.017 480.17 159.493 480.17 156.337C480.17 153.182 477.645 150.658 474.489 150.658C471.333 150.658 468.809 153.182 468.809 156.337C468.809 159.493 471.333 162.017 474.489 162.017Z" fill="url(#paint37_linear)"/>
</g>
<g opacity="0.85" class="flicker2">
<path opacity="0.85" d="M508.699 290.878C512.108 290.878 514.885 288.101 514.885 284.694C514.885 281.286 512.108 278.509 508.699 278.509C505.291 278.509 502.514 281.286 502.514 284.694C502.514 288.101 505.291 290.878 508.699 290.878Z" fill="url(#paint38_linear)"/>
<path opacity="0.85" d="M508.701 290.625C511.983 290.625 514.634 287.975 514.634 284.694C514.634 281.412 511.983 278.762 508.701 278.762C505.419 278.762 502.768 281.412 502.768 284.694C502.768 287.975 505.419 290.625 508.701 290.625Z" fill="url(#paint39_linear)"/>
<path opacity="0.85" d="M508.321 288.732C510.846 288.732 512.866 286.713 512.866 284.189C512.866 281.664 510.846 279.645 508.321 279.645C505.796 279.645 503.776 281.664 503.776 284.189C503.776 286.713 505.796 288.732 508.321 288.732Z" fill="url(#paint40_linear)"/>
</g>
<g opacity="0.85" class="flicker1">
<path opacity="0.85" d="M486.356 129.076C489.764 129.076 492.541 126.299 492.541 122.892C492.541 119.484 489.764 116.707 486.356 116.707C482.947 116.707 480.17 119.484 480.17 122.892C480.17 126.299 482.947 129.076 486.356 129.076Z" fill="url(#paint41_linear)"/>
<path opacity="0.85" d="M486.355 128.949C489.637 128.949 492.288 126.298 492.288 123.017C492.288 119.735 489.637 117.085 486.355 117.085C483.073 117.085 480.422 119.735 480.422 123.017C480.422 126.298 483.073 128.949 486.355 128.949Z" fill="url(#paint42_linear)"/>
<path opacity="0.85" d="M485.976 127.057C488.501 127.057 490.521 125.037 490.521 122.513C490.521 119.989 488.501 117.969 485.976 117.969C483.451 117.969 481.432 119.989 481.432 122.513C481.432 125.037 483.451 127.057 485.976 127.057Z" fill="url(#paint43_linear)"/>
</g>
<path d="M553.009 556.046C553.009 556.046 553.766 560.085 554.019 564.755C554.145 566.774 552.63 568.541 550.611 568.793C543.541 569.424 527.509 570.687 517.283 569.298C515.895 569.046 515.263 567.279 516.4 566.395C520.565 562.483 530.791 554.784 547.581 553.143L553.009 556.046Z" fill="#384187"/>
<path d="M556.417 547.085L552.883 555.794C552.378 556.93 551.241 557.687 549.853 557.561C548.969 557.434 547.959 557.308 546.949 557.056C544.929 556.425 543.793 554.279 544.424 552.26L547.075 543.299L556.417 547.085Z" fill="url(#paint44_linear)"/>
<path d="M617.266 562.988C617.266 562.988 610.196 568.92 607.419 576.618C606.662 578.764 608.303 580.91 610.449 580.91H625.093C627.239 580.91 628.88 579.016 628.501 576.871C627.617 571.57 624.966 562.988 617.266 562.988Z" fill="#384187"/>
<path d="M626.103 555.289C626.103 555.289 624.714 561.599 623.578 565.891C623.325 566.648 622.568 567.026 621.811 566.774C619.538 566.017 617.771 565.638 616.508 565.764C615.877 565.891 615.372 565.386 615.372 564.755L615.246 554.153L626.103 555.289Z" fill="url(#paint45_linear)"/>
<path d="M588.23 412.04L544.93 544.182C544.93 544.182 553.261 549.609 557.175 549.357L608.681 443.214C608.681 443.214 617.644 508.591 613.352 555.667L628.122 556.803C628.122 556.803 652.107 436.777 633.929 395.633L588.23 412.04Z" fill="#384187"/>
<path d="M608.302 442.078C608.429 442.078 608.429 442.078 608.302 442.078C608.555 442.078 608.807 441.826 608.681 441.573L607.04 428.195C607.04 427.942 606.787 427.816 606.535 427.816C606.282 427.816 606.156 428.069 606.156 428.321L607.797 441.699C607.924 441.826 608.176 442.078 608.302 442.078Z" fill="#4E56B5"/>
<path d="M580.15 295.8C580.15 295.8 615.245 298.955 610.321 323.945C610.321 323.945 629.762 360.42 638.852 403.458C639.104 404.846 638.22 406.234 636.832 406.487L578.383 416.457C576.742 416.71 575.227 415.7 574.848 414.185L560.835 360.167L555.407 385.283L538.112 380.74L552.63 307.033C552.504 307.033 554.523 296.179 580.15 295.8Z" fill="#6165D7"/>
<path d="M560.332 357.643C560.332 357.643 560.458 357.643 560.332 357.643C560.71 357.643 560.837 357.391 560.71 357.138L555.787 334.799C555.787 334.547 555.535 334.421 555.282 334.421C555.03 334.421 554.903 334.673 554.903 334.925L559.827 357.265C559.953 357.517 560.205 357.643 560.332 357.643Z" fill="#575AC1"/>
<path d="M563.865 424.282C565.759 423.273 567.905 423.02 569.925 423.525L573.965 424.535C574.848 424.787 575.732 424.156 575.732 423.273L579.898 385.788C585.2 388.312 592.774 387.934 595.299 387.807L585.579 431.981H551.62L563.865 424.282Z" fill="url(#paint46_linear)"/>
<path d="M473.731 343.003L474.741 339.595C475.373 337.576 476.761 336.061 478.655 335.304L497.212 327.858C497.212 327.858 497.465 325.46 493.299 323.819C489.133 322.178 490.143 317.508 490.143 317.508C490.143 317.508 495.823 320.159 504.281 324.324C509.079 326.722 511.73 330.887 513.244 334.042L555.282 385.157L550.359 388.565C543.921 392.982 534.958 390.837 531.297 383.895L508.574 340.352C496.96 343.76 485.472 344.391 473.731 343.003Z" fill="url(#paint47_linear)"/>
<path d="M568.664 271.82L579.52 301.984C579.52 301.984 569.926 309.431 562.983 306.907L557.555 289.616C557.555 289.742 561.721 268.539 568.664 271.82Z" fill="url(#paint48_linear)"/>
<path d="M536.473 261.092C536.473 261.597 546.824 290.499 546.824 290.499L563.235 284.189L557.428 255.286C557.555 255.286 536.473 253.267 536.473 261.092Z" fill="#FEBBBA"/>
<path d="M554.651 262.354L558.943 277.373C558.943 277.626 559.069 277.752 559.069 278.004C559.069 279.267 558.816 283.431 554.524 282.8C550.611 282.296 547.076 281.917 544.804 282.927C543.794 283.431 543.289 284.567 543.668 285.577C544.678 288.227 546.824 294.159 549.601 298.955C550.106 299.965 551.368 300.344 552.378 299.839C555.408 298.451 561.846 295.295 566.517 291.509C567.148 291.004 567.401 290.247 567.275 289.363C566.517 285.577 564.371 273.839 564.371 270.558C564.245 267.403 567.78 265.005 569.294 264.121C569.799 263.869 570.178 263.364 570.304 262.733C570.809 260.714 571.188 256.17 565.381 255.16C564.119 254.908 563.361 253.772 563.614 252.51C564.119 250.112 563.992 246.578 559.321 245.19C554.651 243.801 551.747 246.704 550.232 248.85C549.601 249.733 548.465 249.986 547.581 249.607C547.076 249.355 546.319 249.355 545.687 249.986C544.678 250.743 543.289 250.491 542.531 249.481C541.143 247.461 538.744 245.442 534.578 246.83C527.13 249.228 527.509 257.811 530.286 262.481C533.063 267.15 540.89 264.121 544.678 260.966C547.581 258.568 551.873 260.083 553.767 260.84C554.019 261.218 554.524 261.723 554.651 262.354Z" fill="#384187"/>
<path d="M565.633 276.111C565.633 276.111 561.215 267.781 564.118 265.257C567.022 262.607 571.945 263.111 571.819 269.548C571.693 277.499 565.633 276.111 565.633 276.111Z" fill="url(#paint49_linear)"/>
<path d="M592.018 388.312C594.416 388.312 596.183 388.186 596.31 388.06H596.562L609.312 328.489C609.312 328.236 609.186 327.984 608.934 327.984C608.681 327.984 608.429 328.11 608.429 328.362L595.805 387.303C593.911 387.429 583.686 388.186 578.384 384.4L589.493 332.654L587.22 328.362C587.094 328.11 586.842 328.11 586.589 328.236C586.337 328.362 586.337 328.615 586.463 328.867L588.609 332.906L577.5 384.905L577.752 385.031C581.54 387.808 587.852 388.312 592.018 388.312Z" fill="#575AC1"/>
<path d="M575.481 586.084C575.859 586.084 576.112 585.958 576.491 585.832C577.753 585.201 578.384 583.56 577.753 582.172L524.985 448.262C524.48 446.874 522.965 446.243 521.702 446.874C520.44 447.505 519.809 449.146 520.44 450.534L573.208 584.444C573.587 585.453 574.471 586.084 575.481 586.084Z" fill="#7D97F4"/>
<path d="M515.895 586.084C516.905 586.084 517.789 585.453 518.168 584.443L571.062 450.408C571.567 449.02 571.062 447.379 569.8 446.748C568.537 446.117 567.022 446.748 566.517 448.136L513.749 582.045C513.244 583.434 513.749 585.074 515.012 585.706C515.264 585.958 515.643 586.084 515.895 586.084Z" fill="#7D97F4"/>
<path d="M350.646 586.084C351.025 586.084 351.278 585.958 351.656 585.832C352.919 585.201 353.55 583.56 352.919 582.172L300.151 448.262C299.646 446.874 298.131 446.243 296.868 446.874C295.606 447.505 294.975 449.146 295.606 450.534L348.374 584.444C348.753 585.453 349.637 586.084 350.646 586.084Z" fill="#7D97F4"/>
<path d="M291.187 586.084C292.197 586.084 293.081 585.453 293.46 584.443L346.228 450.408C346.733 449.02 346.228 447.379 344.966 446.748C343.703 446.117 342.188 446.748 341.683 448.136L288.915 582.045C288.41 583.434 288.915 585.074 290.178 585.706C290.43 585.958 290.809 586.084 291.187 586.084Z" fill="#7D97F4"/>
<path d="M386.12 495.844H379.935V563.366H386.12V495.844Z" fill="#7D97F4"/>
<path d="M355.571 564.628H410.232V562.735C410.232 561.473 409.222 560.464 407.96 560.464H357.717C356.454 560.464 355.444 561.473 355.444 562.735L355.571 564.628Z" fill="#7D97F4"/>
<path d="M347.492 493.446C347.492 497.106 350.522 500.135 354.183 500.135H409.476C413.137 500.135 416.167 497.106 416.167 493.446V487.388C416.167 483.728 413.137 480.698 409.476 480.698H354.183C350.522 480.698 347.492 483.728 347.492 487.388V493.446Z" fill="#7D97F4"/>
<path d="M429.042 450.786C429.042 450.786 438.258 452.175 448.736 459.243C450.377 460.379 451.261 462.272 451.008 464.165C449.746 474.009 444.57 506.067 427.654 537.367C426.77 539.008 426.518 540.901 426.896 542.794L429.8 556.425L435.228 561.599H421.342L412 536.357L416.04 535.095C419.196 534.085 421.216 531.309 421.342 528.027L421.847 500.892C421.468 488.776 429.295 480.446 429.295 480.446L406.824 479.31L429.042 450.786Z" fill="url(#paint50_linear)"/>
<path d="M440.909 563.997C442.172 565.638 427.149 567.91 419.575 564.25C419.575 564.25 408.971 545.949 408.971 536.483C408.971 536.483 409.854 534.59 416.04 534.969C416.04 534.969 419.575 556.677 423.362 559.075C427.149 561.473 433.84 559.327 433.84 559.327C433.84 559.327 439.016 561.473 440.909 563.997Z" fill="#384187"/>
<path d="M409.475 480.699C409.601 480.446 433.586 477.796 433.586 477.796C433.586 477.796 432.829 485.116 435.228 495.213C437.626 505.31 472.973 548.852 472.973 548.852L469.312 560.59C480.8 564.628 492.035 565.26 503.144 562.609L480.169 548.852C480.169 548.852 458.708 475.776 445.579 462.65L421.467 454.321L409.475 480.699Z" fill="url(#paint51_linear)"/>
<path d="M355.571 438.165C355.571 438.165 341.685 458.738 340.549 468.204C339.412 477.543 344.336 481.456 358.853 482.087C373.371 482.718 412.253 482.718 412.253 482.718L445.328 454.447C445.328 454.447 421.216 445.864 414.904 443.466C408.718 440.816 355.571 438.165 355.571 438.165Z" fill="#7A49A5"/>
<path d="M470.827 556.551C470.827 556.551 466.787 560.464 469.565 564.755C469.565 564.755 501.125 570.308 509.709 567.784C509.709 567.784 507.942 563.745 498.221 559.075L498.979 559.58C499.862 560.211 499.357 561.726 498.221 561.599C491.783 561.347 478.654 560.211 470.827 556.551Z" fill="#384187"/>
<path d="M383.596 322.43C381.45 323.061 374.002 325.838 374.886 330.634C375.012 331.265 374.381 331.77 373.749 331.644C370.467 330.76 363.272 329.624 358.853 335.304C354.94 340.226 357.843 344.896 360.242 347.42C360.873 348.051 360.368 349.061 359.484 348.935C353.551 348.177 340.548 348.051 338.402 360.167C336.382 371.526 344.336 374.682 349.006 375.565C349.764 375.691 350.016 376.701 349.259 377.206C346.86 378.72 344.209 381.749 345.345 387.807C347.113 397.273 365.67 396.516 367.816 396.39C367.942 396.39 368.069 396.39 368.195 396.264L397.987 379.351C398.24 379.225 398.366 378.973 398.366 378.72L404.426 344.012C404.426 343.76 404.426 343.508 404.173 343.255L384.48 322.683C384.227 322.43 383.975 322.304 383.596 322.43Z" fill="url(#paint52_linear)"/>
<path d="M393.064 435.389C393.064 435.389 409.223 419.991 417.176 409.894C421.468 404.341 422.857 397.147 420.837 390.458C417.176 378.216 410.738 365.594 410.233 363.701C409.349 360.672 391.297 360.798 391.297 360.798C391.297 360.798 355.697 383.895 341.685 423.02L357.338 427.943C357.338 427.943 366.68 412.419 375.769 402.448C375.769 402.448 359.863 423.399 359.358 431.981L393.064 435.389Z" fill="#6165D7"/>
<path d="M412.378 346.789C412.252 347.42 407.455 363.07 407.076 363.323C406.698 363.701 396.725 364.206 392.054 360.925L400.007 344.265L412.378 346.789Z" fill="url(#paint53_linear)"/>
<path d="M404.552 313.974C404.552 313.974 413.136 317.508 418.817 329.877C424.624 342.246 420.332 347.925 414.903 348.682C409.475 349.44 401.396 349.313 392.685 341.362C384.101 333.411 393.443 309.683 404.552 313.974Z" fill="url(#paint54_linear)"/>
<path d="M398.492 334.799C398.492 334.799 392.054 316.751 408.086 316.625L411.873 319.275C411.873 319.275 417.68 309.305 408.086 304.509C398.492 299.713 387.257 303.625 383.091 316.625C379.051 329.624 378.294 338.207 385.111 344.391C391.928 350.575 394.705 343.508 394.705 343.508C394.705 343.508 391.044 337.702 392.559 334.673C394.074 331.518 397.608 335.304 397.608 335.304L398.492 334.799Z" fill="url(#paint55_linear)"/>
<path d="M399.25 337.197C399.25 337.197 396.094 327.984 391.675 331.644C385.868 336.314 394.326 340.857 398.24 341.741L399.25 337.197Z" fill="url(#paint56_linear)"/>
<path d="M425.886 436.525L414.019 425.166L397.608 432.107C397.608 432.107 381.323 434.632 371.982 432.107C362.64 429.583 362.64 429.583 362.64 429.583L341.558 423.02L338.276 432.36C337.392 434.758 338.276 437.408 340.295 438.797C342.063 440.059 344.209 441.573 345.597 442.078C348.375 443.34 414.146 441.195 414.146 441.195L425.886 436.525Z" fill="url(#paint57_linear)"/>
<path d="M381.072 441.952H381.198L449.998 441.826C451.639 441.826 453.028 440.437 453.028 438.797C453.028 437.156 451.639 435.641 449.998 435.768L381.198 435.894C379.557 435.894 378.168 437.282 378.168 438.923C378.168 440.564 379.43 441.826 381.072 441.952Z" fill="#4E56B5"/>
<path d="M511.855 379.604H454.543C450.377 379.604 446.463 382.002 444.696 385.914L418.186 441.952H489.385C492.162 441.952 494.561 440.311 495.57 437.787L516.147 385.914C517.284 382.759 515.011 379.604 511.855 379.604Z" fill="#4E56B5"/>
<path d="M471.459 408.254C470.197 412.166 471.08 415.826 473.479 416.583C475.877 417.341 478.781 414.816 480.043 411.03C481.306 407.118 480.422 403.458 478.023 402.7C475.625 401.943 472.721 404.467 471.459 408.254Z" fill="#91B3FA"/>
<path d="M518.925 439.68H586.589V432.738H518.925C520.44 432.738 520.44 439.68 518.925 439.68Z" fill="#91B3FA"/>
<path d="M585.831 439.68C586.336 439.68 586.715 439.301 586.715 438.797V433.496C586.715 432.991 586.336 432.612 585.831 432.612H517.788C517.283 432.612 516.905 432.234 516.905 431.855C516.905 431.476 517.283 431.098 517.788 431.098H590.502C592.143 431.098 593.406 432.36 593.406 434.001V438.418C593.406 439.932 592.143 441.195 590.629 441.195H517.662C517.157 441.195 516.778 440.816 516.778 440.437C516.778 440.059 517.157 439.68 517.662 439.68H585.831Z" fill="#575757"/>
<path d="M285.002 444.476C284.876 443.719 285.002 442.835 285.633 442.331C286.264 441.699 287.022 441.321 288.032 441.321H597.698C598.96 441.321 599.97 441.826 600.728 442.709C601.359 443.593 601.485 444.729 600.98 445.612L597.572 451.923C596.814 453.311 595.173 454.321 593.279 454.321H290.052C288.284 454.321 286.896 453.311 286.517 451.796L285.002 444.476Z" fill="#7D97F4"/>
<path opacity="0.48" d="M659.552 572.463C659.552 572.463 651.818 592.249 582.924 583.938C539.772 576.637 523.954 581.172 523.574 572.875C523.321 564.578 538.633 559.157 564.702 560.927C590.77 562.697 666.641 565.208 659.552 572.463Z" fill="#CECECE"/>
<path opacity="0.48" d="M370.253 554.527C370.253 554.527 333.774 555.936 361.67 565.797C389.565 575.657 420.363 583.853 452.929 584.878C485.495 585.902 516.293 587.823 516.167 581.548C515.915 562.979 506.953 549.789 469.591 552.478C432.228 555.167 390.953 557.601 370.253 554.527Z" fill="#CECECE"/>
<path opacity="0.48" d="M60.141 585.43C55.9527 586.186 32.473 581.272 37.8035 596.014C46.1801 618.946 186.043 610 194.293 585.052C202.161 560.986 65.9792 584.926 60.141 585.43Z" fill="#CECECE"/>
<path opacity="0.25" d="M82.5864 559.899C62.6484 560.627 -26.9462 553.787 8.00831 596.714C36.9057 632.22 96.8458 649.682 202.467 620.142C338.247 582.163 440.839 645.316 580.783 634.402C604.002 632.656 734.735 645.898 727.416 600.789C722.999 573.577 665.204 565.283 647.538 561.209C549.488 539.09 445.382 533.561 345.566 535.598C250.671 537.49 177.607 553.933 82.5864 559.899Z" fill="#CECECE"/>
<defs>
<linearGradient id="paint0_linear" x1="190.734" y1="177.919" x2="155.243" y2="258.725" gradientUnits="userSpaceOnUse">
<stop stop-color="#FEBBBA"/>
<stop offset="1" stop-color="#FF928E"/>
</linearGradient>
<linearGradient id="paint1_linear" x1="200.309" y1="175.25" x2="175.796" y2="231.061" gradientUnits="userSpaceOnUse">
<stop stop-color="#FEBBBA"/>
<stop offset="1" stop-color="#FF928E"/>
</linearGradient>
<linearGradient id="paint2_linear" x1="149.661" y1="522.995" x2="126.224" y2="248.884" gradientUnits="userSpaceOnUse">
<stop stop-color="#FEBBBA"/>
<stop offset="1" stop-color="#FF928E"/>
</linearGradient>
<linearGradient id="paint3_linear" x1="102.453" y1="527.074" x2="79.0099" y2="252.89" gradientUnits="userSpaceOnUse">
<stop stop-color="#FEBBBA"/>
<stop offset="1" stop-color="#FF928E"/>
</linearGradient>
<linearGradient id="paint4_linear" x1="152.24" y1="252.806" x2="147.837" y2="220.574" gradientUnits="userSpaceOnUse">
<stop stop-color="#FEBBBA"/>
<stop offset="1" stop-color="#FF928E"/>
</linearGradient>
<linearGradient id="paint5_linear" x1="163.362" y1="211.256" x2="124.937" y2="142.824" gradientUnits="userSpaceOnUse">
<stop stop-color="#FEBBBA"/>
<stop offset="1" stop-color="#FF928E"/>
</linearGradient>
<linearGradient id="paint6_linear" x1="155.175" y1="215.854" x2="116.749" y2="147.422" gradientUnits="userSpaceOnUse">
<stop stop-color="#FEBBBA"/>
<stop offset="1" stop-color="#FF928E"/>
</linearGradient>
<linearGradient id="paint7_linear" x1="161.291" y1="215.518" x2="186.231" y2="265.466" gradientUnits="userSpaceOnUse">
<stop stop-color="#FEBBBA"/>
<stop offset="1" stop-color="#FF928E"/>
</linearGradient>
<linearGradient id="paint8_linear" x1="614.094" y1="149.444" x2="680.712" y2="149.444" gradientUnits="userSpaceOnUse">
<stop stop-color="#DAE3FE"/>
<stop offset="1" stop-color="#E9EFFD"/>
</linearGradient>
<linearGradient id="paint9_linear" x1="518.092" y1="155.429" x2="603.654" y2="155.429" gradientUnits="userSpaceOnUse">
<stop stop-color="#FE7062"/>
<stop offset="1" stop-color="#FF928E"/>
</linearGradient>
<linearGradient id="paint10_linear" x1="527.266" y1="264.57" x2="598.369" y2="264.57" gradientUnits="userSpaceOnUse">
<stop stop-color="#FE7062"/>
<stop offset="1" stop-color="#FF928E"/>
</linearGradient>
<linearGradient id="paint11_linear" x1="527.264" y1="208.957" x2="619.386" y2="208.957" gradientUnits="userSpaceOnUse">
<stop stop-color="#FE7062"/>
<stop offset="1" stop-color="#FF928E"/>
</linearGradient>
<linearGradient id="paint12_linear" x1="484.464" y1="233.228" x2="465.561" y2="251.635" gradientUnits="userSpaceOnUse">
<stop stop-color="#FE7062"/>
<stop offset="1" stop-color="#FF928E"/>
</linearGradient>
<linearGradient id="paint13_linear" x1="478.921" y1="236.194" x2="454.4" y2="273.262" gradientUnits="userSpaceOnUse">
<stop stop-color="#FE7062"/>
<stop offset="1" stop-color="#FF928E"/>
</linearGradient>
<linearGradient id="paint14_linear" x1="664.458" y1="63.6189" x2="603.386" y2="121.042" gradientUnits="userSpaceOnUse">
<stop stop-color="#FF928E"/>
<stop offset="1" stop-color="#FEB3B1"/>
</linearGradient>
<linearGradient id="paint15_linear" x1="538.551" y1="206.457" x2="510.852" y2="233.43" gradientUnits="userSpaceOnUse">
<stop stop-color="#FE7062"/>
<stop offset="1" stop-color="#FF928E"/>
</linearGradient>
<linearGradient id="paint16_linear" x1="676.37" y1="76.2835" x2="615.297" y2="133.707" gradientUnits="userSpaceOnUse">
<stop stop-color="#FF928E"/>
<stop offset="1" stop-color="#FEB3B1"/>
</linearGradient>
<linearGradient id="paint17_linear" x1="536.58" y1="251.44" x2="517.677" y2="269.847" gradientUnits="userSpaceOnUse">
<stop stop-color="#FE7062"/>
<stop offset="1" stop-color="#FF928E"/>
</linearGradient>
<linearGradient id="paint18_linear" x1="531.037" y1="254.405" x2="506.517" y2="291.473" gradientUnits="userSpaceOnUse">
<stop stop-color="#FE7062"/>
<stop offset="1" stop-color="#FF928E"/>
</linearGradient>
<linearGradient id="paint19_linear" x1="697.997" y1="99.2871" x2="636.925" y2="156.711" gradientUnits="userSpaceOnUse">
<stop stop-color="#FF928E"/>
<stop offset="1" stop-color="#FEB3B1"/>
</linearGradient>
<linearGradient id="paint20_linear" x1="494.12" y1="252.33" x2="475.217" y2="270.738" gradientUnits="userSpaceOnUse">
<stop stop-color="#FE7062"/>
<stop offset="1" stop-color="#FF928E"/>
</linearGradient>
<linearGradient id="paint21_linear" x1="488.576" y1="255.297" x2="464.056" y2="292.365" gradientUnits="userSpaceOnUse">
<stop stop-color="#FE7062"/>
<stop offset="1" stop-color="#FF928E"/>
</linearGradient>
<linearGradient id="paint22_linear" x1="678.526" y1="78.5762" x2="617.455" y2="136" gradientUnits="userSpaceOnUse">
<stop stop-color="#FF928E"/>
<stop offset="1" stop-color="#FEB3B1"/>
</linearGradient>
<linearGradient id="paint23_linear" x1="521.247" y1="232.588" x2="502.345" y2="250.996" gradientUnits="userSpaceOnUse">
<stop stop-color="#FE7062"/>
<stop offset="1" stop-color="#FF928E"/>
</linearGradient>
<linearGradient id="paint24_linear" x1="515.704" y1="235.554" x2="491.184" y2="272.624" gradientUnits="userSpaceOnUse">
<stop stop-color="#FE7062"/>
<stop offset="1" stop-color="#FF928E"/>
</linearGradient>
<linearGradient id="paint25_linear" x1="681.399" y1="81.6331" x2="620.327" y2="139.056" gradientUnits="userSpaceOnUse">
<stop stop-color="#FF928E"/>
<stop offset="1" stop-color="#FEB3B1"/>
</linearGradient>
<linearGradient id="paint26_linear" x1="505.014" y1="168.363" x2="486.112" y2="186.77" gradientUnits="userSpaceOnUse">
<stop stop-color="#FE7062"/>
<stop offset="1" stop-color="#FF928E"/>
</linearGradient>
<linearGradient id="paint27_linear" x1="499.471" y1="171.329" x2="474.951" y2="208.397" gradientUnits="userSpaceOnUse">
<stop stop-color="#FE7062"/>
<stop offset="1" stop-color="#FF928E"/>
</linearGradient>
<linearGradient id="paint28_linear" x1="641.726" y1="39.4363" x2="580.653" y2="96.8599" gradientUnits="userSpaceOnUse">
<stop stop-color="#FF928E"/>
<stop offset="1" stop-color="#FEB3B1"/>
</linearGradient>
<linearGradient id="paint29_linear" x1="488.384" y1="177.708" x2="464.92" y2="200.558" gradientUnits="userSpaceOnUse">
<stop stop-color="#FE7062"/>
<stop offset="1" stop-color="#FF928E"/>
</linearGradient>
<linearGradient id="paint30_linear" x1="481.503" y1="181.391" x2="451.066" y2="227.405" gradientUnits="userSpaceOnUse">
<stop stop-color="#FE7062"/>
<stop offset="1" stop-color="#FF928E"/>
</linearGradient>
<linearGradient id="paint31_linear" x1="638.535" y1="36.0457" x2="577.462" y2="93.4693" gradientUnits="userSpaceOnUse">
<stop stop-color="#FF928E"/>
<stop offset="1" stop-color="#FEB3B1"/>
</linearGradient>
<linearGradient id="paint32_linear" x1="529.264" y1="144.778" x2="510.362" y2="163.187" gradientUnits="userSpaceOnUse">
<stop stop-color="#FE7062"/>
<stop offset="1" stop-color="#FF928E"/>
</linearGradient>
<linearGradient id="paint33_linear" x1="523.72" y1="147.746" x2="499.2" y2="184.814" gradientUnits="userSpaceOnUse">
<stop stop-color="#FE7062"/>
<stop offset="1" stop-color="#FF928E"/>
</linearGradient>
<linearGradient id="paint34_linear" x1="641.33" y1="39.0148" x2="580.257" y2="96.4388" gradientUnits="userSpaceOnUse">
<stop stop-color="#FF928E"/>
<stop offset="1" stop-color="#FEB3B1"/>
</linearGradient>
<linearGradient id="paint35_linear" x1="487.438" y1="144.741" x2="463.974" y2="167.59" gradientUnits="userSpaceOnUse">
<stop stop-color="#FE7062"/>
<stop offset="1" stop-color="#FF928E"/>
</linearGradient>
<linearGradient id="paint36_linear" x1="480.555" y1="148.424" x2="450.119" y2="194.436" gradientUnits="userSpaceOnUse">
<stop stop-color="#FE7062"/>
<stop offset="1" stop-color="#FF928E"/>
</linearGradient>
<linearGradient id="paint37_linear" x1="621.635" y1="18.0677" x2="560.563" y2="75.4916" gradientUnits="userSpaceOnUse">
<stop stop-color="#FF928E"/>
<stop offset="1" stop-color="#FEB3B1"/>
</linearGradient>
<linearGradient id="paint38_linear" x1="518.768" y1="274.874" x2="499.865" y2="293.282" gradientUnits="userSpaceOnUse">
<stop stop-color="#FE7062"/>
<stop offset="1" stop-color="#FF928E"/>
</linearGradient>
<linearGradient id="paint39_linear" x1="513.226" y1="277.841" x2="488.707" y2="314.909" gradientUnits="userSpaceOnUse">
<stop stop-color="#FE7062"/>
<stop offset="1" stop-color="#FF928E"/>
</linearGradient>
<linearGradient id="paint40_linear" x1="701.338" y1="102.841" x2="640.267" y2="160.265" gradientUnits="userSpaceOnUse">
<stop stop-color="#FF928E"/>
<stop offset="1" stop-color="#FEB3B1"/>
</linearGradient>
<linearGradient id="paint41_linear" x1="496.386" y1="113.157" x2="477.483" y2="131.565" gradientUnits="userSpaceOnUse">
<stop stop-color="#FE7062"/>
<stop offset="1" stop-color="#FF928E"/>
</linearGradient>
<linearGradient id="paint42_linear" x1="490.841" y1="116.124" x2="466.322" y2="153.192" gradientUnits="userSpaceOnUse">
<stop stop-color="#FE7062"/>
<stop offset="1" stop-color="#FF928E"/>
</linearGradient>
<linearGradient id="paint43_linear" x1="610.121" y1="5.82361" x2="549.048" y2="63.2478" gradientUnits="userSpaceOnUse">
<stop stop-color="#FF928E"/>
<stop offset="1" stop-color="#FEB3B1"/>
</linearGradient>
<linearGradient id="paint44_linear" x1="549.124" y1="559.921" x2="552.313" y2="534.979" gradientUnits="userSpaceOnUse">
<stop stop-color="#FEBBBA"/>
<stop offset="1" stop-color="#FF928E"/>
</linearGradient>
<linearGradient id="paint45_linear" x1="618.899" y1="568.47" x2="622.006" y2="544.165" gradientUnits="userSpaceOnUse">
<stop stop-color="#FEBBBA"/>
<stop offset="1" stop-color="#FF928E"/>
</linearGradient>
<linearGradient id="paint46_linear" x1="595.382" y1="408.848" x2="551.782" y2="408.848" gradientUnits="userSpaceOnUse">
<stop stop-color="#FEBBBA"/>
<stop offset="1" stop-color="#FF928E"/>
</linearGradient>
<linearGradient id="paint47_linear" x1="555.207" y1="354.228" x2="473.788" y2="354.228" gradientUnits="userSpaceOnUse">
<stop stop-color="#FEBBBA"/>
<stop offset="1" stop-color="#FF928E"/>
</linearGradient>
<linearGradient id="paint48_linear" x1="584.51" y1="308.603" x2="556.193" y2="279.532" gradientUnits="userSpaceOnUse">
<stop stop-color="#FEBBBA"/>
<stop offset="1" stop-color="#FF928E"/>
</linearGradient>
<linearGradient id="paint49_linear" x1="595.155" y1="298.234" x2="566.84" y2="269.163" gradientUnits="userSpaceOnUse">
<stop stop-color="#FEBBBA"/>
<stop offset="1" stop-color="#FF928E"/>
</linearGradient>
<linearGradient id="paint50_linear" x1="522.115" y1="429.555" x2="403.773" y2="530.434" gradientUnits="userSpaceOnUse">
<stop stop-color="#FEBBBA"/>
<stop offset="1" stop-color="#FF928E"/>
</linearGradient>
<linearGradient id="paint51_linear" x1="452.326" y1="508.583" x2="538.363" y2="557.938" gradientUnits="userSpaceOnUse">
<stop stop-color="#FEBBBA"/>
<stop offset="1" stop-color="#FF928E"/>
</linearGradient>
<linearGradient id="paint52_linear" x1="394.559" y1="340.996" x2="461.119" y2="273.569" gradientUnits="userSpaceOnUse">
<stop stop-color="#E1473D"/>
<stop offset="1" stop-color="#E9605A"/>
</linearGradient>
<linearGradient id="paint53_linear" x1="397.989" y1="380.712" x2="402.668" y2="350.666" gradientUnits="userSpaceOnUse">
<stop stop-color="#FEBBBA"/>
<stop offset="1" stop-color="#FF928E"/>
</linearGradient>
<linearGradient id="paint54_linear" x1="418.236" y1="324.083" x2="376.863" y2="352.205" gradientUnits="userSpaceOnUse">
<stop stop-color="#FEBBBA"/>
<stop offset="1" stop-color="#FF928E"/>
</linearGradient>
<linearGradient id="paint55_linear" x1="385.444" y1="331.999" x2="452.003" y2="264.571" gradientUnits="userSpaceOnUse">
<stop stop-color="#E1473D"/>
<stop offset="1" stop-color="#E9605A"/>
</linearGradient>
<linearGradient id="paint56_linear" x1="421.406" y1="318.681" x2="373.499" y2="351.243" gradientUnits="userSpaceOnUse">
<stop stop-color="#FEBBBA"/>
<stop offset="1" stop-color="#FF928E"/>
</linearGradient>
<linearGradient id="paint57_linear" x1="371.085" y1="432.735" x2="283.085" y2="432.735" gradientUnits="userSpaceOnUse">
<stop stop-color="#FEBBBA"/>
<stop offset="1" stop-color="#FF928E"/>
</linearGradient>
</defs>
</svg>
