<?xml version="1.0" encoding="utf-8"?>
<!-- Generator: Adobe Illustrator 25.0.1, SVG Export Plug-In . SVG Version: 6.00 Build 0)  -->
<svg version="1.1" id="Layer_1" xmlns="http://www.w3.org/2000/svg" xmlns:xlink="http://www.w3.org/1999/xlink" x="0px" y="0px"
	 viewBox="0 0 1340 680" style="enable-background:new 0 0 1340 680;" xml:space="preserve">
<g>
	<g>
		<path class="st0" d="M822.45,277.95c-3.56-3.57-7.8-6.42-12.6-8.47c-4.84-2.06-10.03-3.1-15.45-3.1H752
			c-3.67,0-6.65,2.99-6.65,6.66v133.92c0,3.67,2.99,6.65,6.65,6.65h42.4c5.43,0,10.63-1.04,15.45-3.1c4.78-2.04,9.02-4.89,12.6-8.47
			c3.57-3.57,6.42-7.79,8.46-12.54c2.06-4.81,3.11-10,3.11-15.42v-8.59c0-3.8-0.51-7.49-1.53-10.95c-1-3.45-2.45-6.74-4.32-9.77
			c-1.85-2.99-4.06-5.73-6.57-8.13c-0.1-0.1-0.2-0.19-0.3-0.28c0.1-0.09,0.2-0.18,0.29-0.28c2.51-2.4,4.72-5.11,6.56-8.06
			c1.88-3,3.34-6.28,4.34-9.74c1.01-3.48,1.53-7.17,1.53-10.96v-1.31c0-5.43-1.04-10.63-3.1-15.46
			C828.88,285.77,826.03,281.53,822.45,277.95z M808.66,363.53v10.55c0,2.09-0.37,3.95-1.13,5.71c-0.78,1.81-1.83,3.34-3.18,4.67
			c-1.39,1.37-2.96,2.42-4.8,3.22c-1.76,0.76-3.62,1.13-5.71,1.13H770.7V348.8h23.14c2.09,0,3.96,0.37,5.71,1.13
			c1.84,0.8,3.41,1.85,4.79,3.21c1.34,1.32,2.42,2.9,3.19,4.68C808.29,359.58,808.66,361.45,808.66,363.53z M770.7,324.01v-32.82
			h23.14c2.08,0,3.95,0.37,5.71,1.13c1.83,0.8,3.39,1.85,4.76,3.22c1.35,1.35,2.44,2.96,3.22,4.75c0.76,1.76,1.13,3.63,1.13,5.72
			v3.17c0,2.09-0.37,3.95-1.13,5.71c-0.79,1.81-1.87,3.41-3.23,4.76c-1.37,1.37-2.92,2.43-4.76,3.22c-1.76,0.76-3.62,1.13-5.71,1.13
			H770.7z"/>
		<path class="st0" d="M913.47,354.9c1.46-0.43,2.9-0.94,4.3-1.54c4.75-2.04,8.96-4.89,12.54-8.46c3.58-3.58,6.43-7.82,8.47-12.6
			c2.06-4.84,3.1-10.03,3.1-15.45v-10.83c0-5.41-1.04-10.61-3.1-15.46c-2.04-4.78-4.89-9.02-8.47-12.6
			c-3.57-3.57-7.79-6.41-12.54-8.46c-4.81-2.06-10-3.11-15.42-3.11h-42.49c-3.67,0-6.66,2.99-6.66,6.66v133.92
			c0,3.67,2.99,6.65,6.66,6.65h12.05c3.67,0,6.66-2.99,6.66-6.65v-50.5h6.22l34.37,54.07c1.22,1.93,3.33,3.08,5.62,3.08h13.91
			c2.43,0,4.66-1.32,5.83-3.45c1.17-2.13,1.09-4.72-0.22-6.78L913.47,354.9z M915.38,322.55c-0.78,1.81-1.86,3.42-3.22,4.79
			c-1.34,1.36-2.87,2.4-4.67,3.19c-1.76,0.76-3.62,1.13-5.71,1.13h-23.23v-40.48h23.23c2.09,0,3.95,0.37,5.71,1.13
			c1.81,0.78,3.34,1.82,4.68,3.19c1.34,1.36,2.42,2.97,3.21,4.79c0.76,1.76,1.13,3.63,1.13,5.72v10.83
			C916.51,318.93,916.14,320.8,915.38,322.55z"/>
		<path class="st0" d="M1011.63,271.16c-0.83-2.81-3.46-4.78-6.38-4.78h-6.35c-2.94,0-5.56,1.97-6.38,4.79l-39.22,133.91
			c-0.59,2-0.2,4.19,1.06,5.86c1.25,1.67,3.24,2.67,5.33,2.67h12.51c2.97,0,5.6-1.99,6.41-4.85l7.41-26.34h32.33l7.5,26.36
			c0.81,2.85,3.44,4.83,6.4,4.83h12.42c2.09,0,4.08-1,5.33-2.67c1.25-1.67,1.65-3.86,1.06-5.87L1011.63,271.16z M1011.36,357.62
			h-18.31l9.13-32.11L1011.36,357.62z"/>
		<path class="st0" d="M1085.36,266.38h-12.05c-3.67,0-6.65,2.99-6.65,6.66v133.92c0,3.67,2.99,6.65,6.65,6.65h12.05
			c3.67,0,6.65-2.99,6.65-6.65V273.04C1092.02,269.37,1089.03,266.38,1085.36,266.38z"/>
		<path class="st0" d="M1202.83,266.38h-12.05c-3.67,0-6.65,2.99-6.65,6.66v74.68l-44.63-77.98c-1.18-2.07-3.4-3.35-5.78-3.35h-6.26
			c-3.67,0-6.65,2.99-6.65,6.66v133.92c0,3.67,2.99,6.65,6.65,6.65h12.05c3.67,0,6.65-2.99,6.65-6.65v-74.44l44.54,77.75
			c1.18,2.07,3.39,3.35,5.77,3.35h6.35c3.67,0,6.65-2.99,6.65-6.65V273.04C1209.49,269.37,1206.5,266.38,1202.83,266.38z"/>
		<path class="st0" d="M1321.7,354.62c-2.16-4.78-5.1-8.9-8.73-12.26c-3.41-3.17-7.34-5.89-11.67-8.07
			c-3.92-1.97-8.01-3.81-12.16-5.47c-3.97-1.58-7.83-3.13-11.59-4.66c-3.26-1.31-6.23-2.9-8.82-4.7c-2.22-1.55-4.02-3.42-5.33-5.55
			c-1.14-1.85-1.72-4.32-1.72-7.34v-2.52c0-2.09,0.37-3.95,1.13-5.71c0.77-1.79,1.84-3.36,3.18-4.67c1.39-1.37,2.96-2.42,4.8-3.22
			c1.75-0.76,3.62-1.13,5.71-1.13h7.47c2.08,0,3.95,0.37,5.71,1.13c1.8,0.78,3.39,1.85,4.72,3.17c1.32,1.32,2.39,2.91,3.17,4.71
			c0.76,1.76,1.13,3.62,1.13,5.71v5.42c0,1.96,0.85,3.8,2.34,5.07c1.49,1.26,3.46,1.82,5.38,1.5l12.05-1.96
			c3.24-0.52,5.59-3.28,5.59-6.57v-3.46c0-5.42-1.05-10.61-3.11-15.42c-2.04-4.75-4.89-8.97-8.46-12.54
			c-3.56-3.57-7.78-6.41-12.54-8.46c-4.81-2.06-9.99-3.11-15.42-3.11h-8.59c-5.42,0-10.62,1.04-15.45,3.1
			c-4.79,2.05-9.03,4.89-12.6,8.47c-3.58,3.59-6.43,7.8-8.45,12.53c-2.07,4.8-3.11,9.99-3.11,15.43v2.52
			c0,6.67,1.12,12.48,3.32,17.26c2.17,4.72,5.12,8.79,8.77,12.1c3.47,3.14,7.41,5.77,11.72,7.84c3.89,1.86,7.98,3.61,12.17,5.18
			c3.94,1.48,7.78,2.96,11.51,4.44c3.24,1.28,6.17,2.86,8.71,4.68c2.22,1.6,4.02,3.54,5.35,5.78c1.18,1.99,1.78,4.72,1.78,8.09v4.02
			c0,2.02-0.39,3.82-1.2,5.54c-0.86,1.84-1.99,3.42-3.46,4.82c-1.46,1.39-3.17,2.5-5.08,3.3c-1.88,0.78-3.82,1.16-5.93,1.16h-8.41
			c-2.13,0-4.09-0.38-6-1.18c-1.93-0.8-3.64-1.9-5.09-3.28c-1.47-1.4-2.6-2.98-3.48-4.83c-0.8-1.71-1.19-3.52-1.19-5.53v-7.28
			c0-1.96-0.86-3.8-2.34-5.07c-1.49-1.27-3.46-1.82-5.38-1.5l-12.05,1.96c-3.24,0.53-5.59,3.29-5.59,6.57v5.32
			c0,5.5,1.13,10.74,3.37,15.58c2.17,4.72,5.13,8.91,8.79,12.46c3.67,3.56,7.98,6.39,12.8,8.41c4.88,2.05,10.1,3.08,15.51,3.08h9.62
			c5.41,0,10.63-1.04,15.51-3.09c4.83-2.03,9.13-4.85,12.79-8.41c3.66-3.54,6.62-7.74,8.79-12.46c2.23-4.84,3.37-10.09,3.37-15.58
			v-4.02C1325,365.28,1323.89,359.45,1321.7,354.62z"/>
	</g>
	<g>
		<path class="st0" d="M688.16,334.75c0-29.09-16.01-55.99-41.15-70.03c0.51-3.07,0.8-6.14,0.8-9.36
			c0-29.75-24.27-53.95-54.02-53.95c-6.8,0-13.45,1.24-19.66,3.73c-3.87-26.02-26.31-45.98-53.36-45.98
			c-8.26,0-16.23,1.83-23.46,5.34c-41.96-52.56-84.57-57.82-129.68-63.3c-11.26-1.39-22.88-2.78-34.58-4.97
			c-57.16-10.82-75.51-51.75-76.24-53.43c-0.73-1.83-2.19-3.22-4.02-3.95c-1.83-0.73-3.8-0.66-5.63,0.07
			c-9.8,4.24-16.3,10.23-20.61,16.08c-4.97-9.58-12.5-17.84-21.86-23.54c-15.93-9.79-35.52-11.33-53.73-4.31
			c-21.05,8.04-35.01,27.92-36.4,51.24c-7.09-1.75-14.55-1.97-22.08-0.44c-19.52,3.8-35.23,19.44-39.11,39.03
			c-2.85,14.55,0.44,29.02,8.99,40.42C33.27,173.79,15,204.64,15,238.55c0,33.77,17.69,64.03,46.05,80.55
			c-28.14,18.86-44.3,52.12-40.94,86.77c4.46,45.91,42.69,81.94,88.96,83.84c6.65,0.29,13.23-0.15,19.66-1.24
			c-0.95,4.82-1.46,9.87-1.46,14.91c0,41.88,34.06,75.95,75.95,75.95c13.01,0,25.73-3.29,36.62-9.43c0.15-0.07,0.37-0.22,0.66-0.37
			c0.37-0.22,0.73-0.44,1.1-0.73c0.8-0.58,2.41-1.61,4.61-2.92c11.26-6.29,17.84-6.58,20.03-4.9c1.1,0.73,5.92,5.85,0.22,30.63
			c-9.65,41.52-10.31,57.38-10.31,58.04c-0.07,2.56,1.24,5.04,3.44,6.43c1.17,0.73,2.56,1.1,3.87,1.1c1.17,0,2.41-0.29,3.44-0.88
			c1.39-0.73,34.06-18.42,49.71-37.21c9.43-11.26,15.5-22.66,21.34-33.7c11.26-21.13,20.18-37.86,49.05-45.54
			c11.33-3.07,23.32-2.7,32.46-2.05c2.19,0.15,4.31,0.22,6.5,0.22c43.86,0,80.55-31.43,88.6-73.02
			c18.42,20.18,45.61,30.34,73.83,26.68c22.95-3,44-15.79,57.75-35.09c12.79-17.91,18.05-40.06,14.76-61.62
			C678.29,379.78,688.16,358.07,688.16,334.75z M276.25,393.59c0,7.75-1.46,15.13-4.39,21.93c-2.92,6.8-7.02,12.79-12.06,17.91
			c-5.12,5.12-11.11,9.14-17.91,12.06c-6.8,2.92-14.18,4.39-21.93,4.39h-14.18c-7.75,0-15.13-1.46-22-4.39
			c-6.8-2.92-12.87-6.94-17.98-12.06c-5.12-5.12-9.14-11.11-12.06-17.91c-2.92-6.8-4.39-14.18-4.39-21.93V286.43
			c0-7.75,1.46-15.13,4.39-22c2.92-6.72,6.94-12.72,12.06-17.84s11.11-9.14,17.98-12.06c6.87-2.92,14.25-4.46,22-4.46h14.18
			c7.75,0,15.13,1.54,21.93,4.46c6.8,2.92,12.79,6.94,17.91,12.06c5.04,5.04,9.14,11.11,12.06,17.84c2.92,6.87,4.39,14.25,4.39,22
			V393.59z M395.25,285.56c0,4.09-3.22,7.31-7.31,7.31h-15.72c-1.9,0-3.51,0.37-5.12,1.02c-1.61,0.73-3,1.61-4.17,2.85
			c-1.24,1.17-2.12,2.56-2.85,4.24c-0.66,1.61-1.02,3.29-1.02,5.19v12.87h25.95c4.09,0,7.31,3.29,7.31,7.31v16.3
			c0,4.02-3.22,7.31-7.31,7.31h-25.95v89.84c0,4.02-3.29,7.31-7.31,7.31h-17.11c-4.02,0-7.31-3.29-7.31-7.31v-89.84h-18.42
			c-4.09,0-7.31-3.29-7.31-7.31v-16.3c0-4.02,3.22-7.31,7.31-7.31h18.42v-11.99c0-6.21,1.17-12.06,3.51-17.54
			c2.27-5.48,5.56-10.31,9.65-14.4c4.02-4.09,8.84-7.31,14.25-9.58c5.41-2.34,11.33-3.51,17.47-3.51h15.72
			c4.09,0,7.31,3.22,7.31,7.31V285.56z M514.26,285.56c0,4.09-3.29,7.31-7.31,7.31h-15.72c-1.9,0-3.58,0.37-5.12,1.02
			c-1.61,0.73-3,1.61-4.17,2.85c-1.24,1.17-2.12,2.56-2.85,4.24c-0.66,1.61-1.02,3.29-1.02,5.19v12.87h25.95
			c4.02,0,7.31,3.29,7.31,7.31v16.3c0,4.02-3.29,7.31-7.31,7.31h-25.95v89.84c0,4.02-3.29,7.31-7.31,7.31h-17.1
			c-4.02,0-7.31-3.29-7.31-7.31v-89.84h-18.42c-4.09,0-7.31-3.29-7.31-7.31v-16.3c0-4.02,3.22-7.31,7.31-7.31h18.42v-11.99
			c0-6.21,1.17-12.06,3.51-17.54c2.27-5.48,5.56-10.31,9.65-14.4c4.02-4.09,8.84-7.31,14.25-9.58c5.41-2.34,11.33-3.51,17.47-3.51
			h15.72c4.02,0,7.31,3.22,7.31,7.31V285.56z M236.49,269.03c-2.19-2.19-4.82-4.02-7.82-5.26c-2.92-1.32-6.07-1.9-9.5-1.9h-12.57
			c-3.44,0-6.58,0.58-9.5,1.9c-3.07,1.32-5.7,3.07-7.97,5.34c-2.27,2.19-4.02,4.75-5.34,7.75c-1.24,2.92-1.9,6.07-1.9,9.58v107.16
			c0,3.51,0.66,6.58,1.9,9.58c1.32,3,3.07,5.56,5.41,7.89c2.27,2.27,4.82,4.02,7.89,5.34c2.92,1.24,6.07,1.9,9.5,1.9h12.57
			c3.44,0,6.58-0.66,9.5-1.9c3-1.32,5.63-3.07,7.82-5.34c2.27-2.27,4.02-4.9,5.34-7.89c1.24-3,1.9-6.07,1.9-9.58V286.43
			c0-3.51-0.66-6.65-1.9-9.58C240.51,273.86,238.75,271.23,236.49,269.03z"/>
	</g>
</g>
</svg>
