<svg width="36" height="37" viewBox="0 0 36 37" fill="none" xmlns="http://www.w3.org/2000/svg">
<path d="M21.7969 13.7305C21.4087 13.7305 21.0938 14.0542 21.0938 14.4531C21.0938 14.852 21.4087 15.1758 21.7969 15.1758C22.185 15.1758 22.5 14.852 22.5 14.4531C22.5 14.0542 22.185 13.7305 21.7969 13.7305Z" fill="white"/>
<path d="M35.176 32.0656L25.7907 22.4196C27.3196 20.0526 28.125 17.3116 28.125 14.4531C28.125 6.48367 21.8166 0 14.0625 0C6.30844 0 0 6.48367 0 14.4531C0 22.4226 6.30844 28.9062 14.0625 28.9062C16.8438 28.9062 19.5107 28.0784 21.8137 26.5072L24.4079 29.1734C24.4082 29.1738 24.4086 29.1741 24.409 29.1746L31.1989 36.1531C31.7303 36.6992 32.4365 37 33.1875 37C33.9385 37 34.6447 36.6992 35.1758 36.1533C35.7073 35.6075 36 34.8817 36 34.1094C36 33.3371 35.7073 32.6112 35.176 32.0656ZM21.483 24.9842C21.483 24.9842 21.4829 24.9843 21.4829 24.9843C19.3125 26.6045 16.7467 27.4609 14.0625 27.4609C7.08384 27.4609 1.40625 21.6256 1.40625 14.4531C1.40625 7.28062 7.08384 1.44531 14.0625 1.44531C21.0412 1.44531 26.7188 7.28062 26.7188 14.4531C26.7188 17.2119 25.8855 19.849 24.309 22.0797C23.5203 23.1964 22.5695 24.1736 21.483 24.9842ZM22.9582 25.6393C23.6859 25.0275 24.3511 24.3438 24.9464 23.5959L26.9412 25.6461C26.3346 26.382 25.669 27.0662 24.953 27.6896L22.9582 25.6393ZM34.1816 35.1311C33.9159 35.4043 33.5628 35.5547 33.1875 35.5547C32.8122 35.5547 32.4591 35.4043 32.1934 35.1311L25.95 28.7143C26.662 28.0863 27.3272 27.4027 27.9382 26.6709L34.1818 33.0879C34.4474 33.3606 34.5938 33.7233 34.5938 34.1094C34.5938 34.4954 34.4474 34.8581 34.1816 35.1311Z" fill="white"/>
<path d="M14.0625 2.89062C7.85918 2.89062 2.8125 8.07749 2.8125 14.4531C2.8125 20.8288 7.85918 26.0156 14.0625 26.0156C20.2658 26.0156 25.3125 20.8288 25.3125 14.4531C25.3125 8.07749 20.2658 2.89062 14.0625 2.89062ZM14.0625 24.5703C8.63466 24.5703 4.21875 20.0317 4.21875 14.4531C4.21875 8.87451 8.63466 4.33594 14.0625 4.33594C19.4903 4.33594 23.9062 8.87451 23.9062 14.4531C23.9062 20.0317 19.4903 24.5703 14.0625 24.5703Z" fill="white"/>
<path d="M21.9421 11.351C21.3366 9.73136 20.2824 8.34661 18.8933 7.34652C17.4712 6.32252 15.8007 5.78125 14.0625 5.78125C13.6742 5.78125 13.3594 6.10486 13.3594 6.50391C13.3594 6.90296 13.6742 7.22656 14.0625 7.22656C16.9523 7.22656 19.5912 9.09232 20.6294 11.8694C20.7369 12.1567 21.0033 12.3331 21.2859 12.3331C21.3697 12.3331 21.455 12.3175 21.5379 12.2848C21.9004 12.1416 22.0814 11.7236 21.9421 11.351Z" fill="white"/>
</svg>
